<?xml version="1.0" encoding="UTF-8" standalone="no"?>
<!-- Created with Inkscape (http://www.inkscape.org/) -->

<svg
   xmlns:dc="http://purl.org/dc/elements/1.1/"
   xmlns:cc="http://creativecommons.org/ns#"
   xmlns:rdf="http://www.w3.org/1999/02/22-rdf-syntax-ns#"
   xmlns:svg="http://www.w3.org/2000/svg"
   xmlns="http://www.w3.org/2000/svg"
   xmlns:sodipodi="http://sodipodi.sourceforge.net/DTD/sodipodi-0.dtd"
   xmlns:inkscape="http://www.inkscape.org/namespaces/inkscape"
   width="15"
   height="15"
   id="svg8013"
   version="1.1"
   inkscape:version="0.47 r22583"
   sodipodi:docname="update_active.svg">
  <defs
     id="defs8015">
    <marker
       inkscape:stockid="TriangleOutS"
       orient="auto"
       refY="0.0"
       refX="0.0"
       id="TriangleOutS"
       style="overflow:visible">
      <path
         id="path3743"
         d="M 5.77,0.0 L -2.88,5.0 L -2.88,-5.0 L 5.77,0.0 z "
         style="fill-rule:evenodd;stroke:#000000;stroke-width:1.0pt;marker-start:none"
         transform="scale(0.2)" />
    </marker>
    <marker
       inkscape:stockid="Arrow1Mend"
       orient="auto"
       refY="0.0"
       refX="0.0"
       id="Arrow1Mend"
       style="overflow:visible;">
      <path
         id="path3603"
         d="M 0.0,0.0 L 5.0,-5.0 L -12.5,0.0 L 5.0,5.0 L 0.0,0.0 z "
         style="fill-rule:evenodd;stroke:#000000;stroke-width:1.0pt;marker-start:none;"
         transform="scale(0.4) rotate(180) translate(10,0)" />
    </marker>
    <marker
       inkscape:stockid="Arrow1Mstart"
       orient="auto"
       refY="0.0"
       refX="0.0"
       id="Arrow1Mstart"
       style="overflow:visible">
      <path
         id="path3600"
         d="M 0.0,0.0 L 5.0,-5.0 L -12.5,0.0 L 5.0,5.0 L 0.0,0.0 z "
         style="fill-rule:evenodd;stroke:#000000;stroke-width:1.0pt;marker-start:none"
         transform="scale(0.4) translate(10,0)" />
    </marker>
    <marker
       inkscape:stockid="TriangleOutL"
       orient="auto"
       refY="0.0"
       refX="0.0"
       id="TriangleOutL"
       style="overflow:visible">
      <path
         id="path3737"
         d="M 5.77,0.0 L -2.88,5.0 L -2.88,-5.0 L 5.77,0.0 z "
         style="fill-rule:evenodd;stroke:#000000;stroke-width:1.0pt;marker-start:none"
         transform="scale(0.8)" />
    </marker>
    <inkscape:perspective
       sodipodi:type="inkscape:persp3d"
       inkscape:vp_x="0 : 526.18109 : 1"
       inkscape:vp_y="0 : 1000 : 0"
       inkscape:vp_z="744.09448 : 526.18109 : 1"
       inkscape:persp3d-origin="372.04724 : 350.78739 : 1"
       id="perspective8021" />
    <inkscape:perspective
       id="perspective8006"
       inkscape:persp3d-origin="0.5 : 0.33333333 : 1"
       inkscape:vp_z="1 : 0.5 : 1"
       inkscape:vp_y="0 : 1000 : 0"
       inkscape:vp_x="0 : 0.5 : 1"
       sodipodi:type="inkscape:persp3d" />
  </defs>
  <sodipodi:namedview
     id="base"
     pagecolor="#ffffff"
     bordercolor="#666666"
     borderopacity="1.0"
     inkscape:pageopacity="0.0"
     inkscape:pageshadow="2"
     inkscape:zoom="22.4"
     inkscape:cx="5.9938719"
     inkscape:cy="17.787728"
     inkscape:document-units="cm"
     inkscape:current-layer="layer1"
     showgrid="false"
     inkscape:window-width="1918"
     inkscape:window-height="1175"
     inkscape:window-x="0"
     inkscape:window-y="1"
     inkscape:window-maximized="1"
     units="px" />
  <metadata
     id="metadata8018">
    <rdf:RDF>
      <cc:Work
         rdf:about="">
        <dc:format>image/svg+xml</dc:format>
        <dc:type
           rdf:resource="http://purl.org/dc/dcmitype/StillImage" />
        <dc:title></dc:title>
      </cc:Work>
    </rdf:RDF>
  </metadata>
  <g
     inkscape:label="Calque 1"
     inkscape:groupmode="layer"
     id="layer1"
     transform="translate(-378.51427,-398.22855)">
    <circle
       transform="translate(-494.92073,312.72855)"
       cx="880.935"
       cy="93"
       r="6.8639998"
       id="circle387"
       sodipodi:cx="880.935"
       sodipodi:cy="93"
       sodipodi:rx="6.8639998"
       sodipodi:ry="6.8639998"
       style="fill:#000000;stroke:#000000;fill-opacity:1"
       d="m 887.799,93 c 0,3.790882 -3.07312,6.864 -6.864,6.864 -3.79088,0 -6.864,-3.073118 -6.864,-6.864 0,-3.790882 3.07312,-6.864 6.864,-6.864 3.79088,0 6.864,3.073118 6.864,6.864 z" />
    <g
       id="g5649">
      <path
         style="font-size:medium;font-style:normal;font-variant:normal;font-weight:normal;font-stretch:normal;text-indent:0;text-align:start;text-decoration:none;line-height:normal;letter-spacing:normal;word-spacing:normal;text-transform:none;direction:ltr;block-progression:tb;writing-mode:lr-tb;text-anchor:start;color:#000000;fill:#ffffff;fill-opacity:1;stroke:none;stroke-width:0;marker:none;visibility:visible;display:inline;overflow:visible;enable-background:accumulate;font-family:Andale Mono;-inkscape-font-specification:Andale Mono;stroke-miterlimit:4;stroke-dasharray:none"
         d="m 386,401.34375 c -0.55994,1.1e-4 -1.09757,0.0985 -1.625,0.3125 -0.52744,0.21402 -1.04237,0.54217 -1.46875,0.96875 -0.42638,0.42656 -0.72371,0.94123 -0.9375,1.46875 -0.21373,0.52749 -0.34387,1.06504 -0.34375,1.625 1.2e-4,0.55991 0.12973,1.1288 0.34375,1.65625 L 382.875,407 c -0.16526,-0.40729 -0.2499,-0.84748 -0.25,-1.28125 -10e-5,-0.43374 0.0849,-0.84259 0.25,-1.25 0.16509,-0.40734 0.41838,-0.79324 0.75,-1.125 0.33162,-0.33176 0.71772,-0.58474 1.125,-0.75 0.40729,-0.16525 0.81624,-0.24991 1.25,-0.25 0.43379,-10e-5 0.87396,0.0849 1.28125,0.25 l 0.375,-0.9375 c -0.52759,-0.21387 -1.09636,-0.31262 -1.65625,-0.3125 z"
         id="path4805" />
      <path
         style="fill:#ffffff;fill-opacity:1;fill-rule:evenodd;stroke:#ffffff;stroke-width:0.19842520000000000pt;marker-start:none;stroke-opacity:1"
         d="m 388.53564,402.55991 -1.96338,0.27463 0.74545,-1.8389 1.21793,1.56427 z"
         id="path5600" />
      <path
         style="font-size:medium;font-style:normal;font-variant:normal;font-weight:normal;font-stretch:normal;text-indent:0;text-align:start;text-decoration:none;line-height:normal;letter-spacing:normal;word-spacing:normal;text-transform:none;direction:ltr;block-progression:tb;writing-mode:lr-tb;text-anchor:start;color:#000000;fill:#ffffff;fill-opacity:1;stroke:none;stroke-width:0;marker:none;visibility:visible;display:inline;overflow:visible;enable-background:accumulate;font-family:Andale Mono;-inkscape-font-specification:Andale Mono;stroke-miterlimit:4;stroke-dasharray:none"
         d="m 390.0625,404.09375 -0.90625,0.375 c 0.16526,0.40728 0.2499,0.81624 0.25,1.25 9e-5,0.43374 -0.0849,0.87385 -0.25,1.28125 -0.16509,0.40735 -0.41838,0.79323 -0.75,1.125 -0.33162,0.33176 -0.71772,0.58474 -1.125,0.75 -0.40728,0.16526 -0.8475,0.24991 -1.28125,0.25 -0.43374,10e-5 -0.84259,-0.0849 -1.25,-0.25 l -0.375,0.90625 c 0.52749,0.21373 1.06504,0.31262 1.625,0.3125 0.55993,-1.1e-4 1.12881,-0.0985 1.65625,-0.3125 0.52744,-0.21402 1.04237,-0.54219 1.46875,-0.96875 0.42638,-0.42657 0.72371,-0.90997 0.9375,-1.4375 0.21373,-0.5275 0.34386,-1.09631 0.34375,-1.65625 -1.2e-4,-0.55992 -0.12973,-1.09756 -0.34375,-1.625 z"
         id="path2816" />
      <path
         style="fill:#ffffff;fill-opacity:1;fill-rule:evenodd;stroke:#ffffff;stroke-width:0.19842520000000000pt;marker-start:none;stroke-opacity:1"
         d="m 383.49283,408.89739 1.96333,-0.27498 -0.74514,1.83903 -1.21819,-1.56405 z"
         id="path5608" />
    </g>
  </g>
</svg>
