<?xml version="1.0" encoding="UTF-8" standalone="no"?>
<!-- Created with Inkscape (http://www.inkscape.org/) -->

<svg
   xmlns:dc="http://purl.org/dc/elements/1.1/"
   xmlns:cc="http://creativecommons.org/ns#"
   xmlns:rdf="http://www.w3.org/1999/02/22-rdf-syntax-ns#"
   xmlns:svg="http://www.w3.org/2000/svg"
   xmlns="http://www.w3.org/2000/svg"
   xmlns:sodipodi="http://sodipodi.sourceforge.net/DTD/sodipodi-0.dtd"
   xmlns:inkscape="http://www.inkscape.org/namespaces/inkscape"
   width="15"
   height="15"
   id="svg4597"
   version="1.1"
   inkscape:version="0.47 r22583"
   sodipodi:docname="write.svg">
  <defs
     id="defs4599">
    <inkscape:perspective
       sodipodi:type="inkscape:persp3d"
       inkscape:vp_x="0 : 526.18109 : 1"
       inkscape:vp_y="0 : 1000 : 0"
       inkscape:vp_z="744.09448 : 526.18109 : 1"
       inkscape:persp3d-origin="372.04724 : 350.78739 : 1"
       id="perspective4605" />
    <inkscape:perspective
       id="perspective4590"
       inkscape:persp3d-origin="0.5 : 0.33333333 : 1"
       inkscape:vp_z="1 : 0.5 : 1"
       inkscape:vp_y="0 : 1000 : 0"
       inkscape:vp_x="0 : 0.5 : 1"
       sodipodi:type="inkscape:persp3d" />
  </defs>
  <sodipodi:namedview
     id="base"
     pagecolor="#ffffff"
     bordercolor="#666666"
     borderopacity="1.0"
     inkscape:pageopacity="0.0"
     inkscape:pageshadow="2"
     inkscape:zoom="29.5"
     inkscape:cx="-3.2651525"
     inkscape:cy="0.99432461"
     inkscape:document-units="px"
     inkscape:current-layer="layer1"
     showgrid="false"
     inkscape:window-width="1918"
     inkscape:window-height="1175"
     inkscape:window-x="0"
     inkscape:window-y="1"
     inkscape:window-maximized="1" />
  <metadata
     id="metadata4602">
    <rdf:RDF>
      <cc:Work
         rdf:about="">
        <dc:format>image/svg+xml</dc:format>
        <dc:type
           rdf:resource="http://purl.org/dc/dcmitype/StillImage" />
        <dc:title></dc:title>
      </cc:Work>
    </rdf:RDF>
  </metadata>
  <g
     inkscape:label="Calque 1"
     inkscape:groupmode="layer"
     id="layer1"
     transform="translate(4.1459e-5,-992.39168)">
    <g
       transform="matrix(1.0728522,0,0,1.0728487,-104.36527,859.36352)"
       id="g1201">
      <path
         d="m 104.269,125.122 c 3.233,0 5.864,2.631 5.864,5.864 0,3.233 -2.63,5.864 -5.864,5.864 -3.234,0 -5.864,-2.631 -5.864,-5.864 0,-3.233 2.63,-5.864 5.864,-5.864 m 0,-1 c -3.791,0 -6.864,3.073 -6.864,6.864 0,3.791 3.073,6.864 6.864,6.864 3.791,0 6.864,-3.073 6.864,-6.864 0,-3.791 -3.073,-6.864 -6.864,-6.864 l 0,0 z"
         id="path1203" />
    </g>
    <path
       style="fill:none;stroke:#000000;stroke-width:1.07299995000000004;stroke-linejoin:round;stroke-miterlimit:4;stroke-opacity:1"
       d="m 9.605747,996.27575 1.47622,1.47623 -5.2394632,5.23942 -1.9245538,0.5162 c 0,0 0.448334,-1.9924 0.448334,-1.9924 l 5.239463,-5.23945 z"
       id="rect2824" />
  </g>
</svg>
