<?xml version="1.0" encoding="UTF-8" standalone="no"?>
<!-- Created with Inkscape (http://www.inkscape.org/) -->

<svg
   xmlns:dc="http://purl.org/dc/elements/1.1/"
   xmlns:cc="http://creativecommons.org/ns#"
   xmlns:rdf="http://www.w3.org/1999/02/22-rdf-syntax-ns#"
   xmlns:svg="http://www.w3.org/2000/svg"
   xmlns="http://www.w3.org/2000/svg"
   xmlns:xlink="http://www.w3.org/1999/xlink"
   xmlns:sodipodi="http://sodipodi.sourceforge.net/DTD/sodipodi-0.dtd"
   xmlns:inkscape="http://www.inkscape.org/namespaces/inkscape"
   width="35.433071"
   height="35.433071"
   id="svg2"
   version="1.1"
   inkscape:version="0.48.4 r9939"
   sodipodi:docname="bittorrent.svg">
  <defs
     id="defs4">
    <linearGradient
       inkscape:collect="always"
       id="linearGradient3889">
      <stop
         style="stop-color:#9c9c9c;stop-opacity:1;"
         offset="0"
         id="stop3891" />
      <stop
         style="stop-color:#9c9c9c;stop-opacity:0;"
         offset="1"
         id="stop3893" />
    </linearGradient>
    <linearGradient
       id="linearGradient5256">
      <stop
         style="stop-color:#acacac;stop-opacity:1;"
         offset="0"
         id="stop5258" />
      <stop
         style="stop-color:#acacac;stop-opacity:0.99342108;"
         offset="1"
         id="stop5260" />
    </linearGradient>
    <linearGradient
       id="linearGradient3798">
      <stop
         style="stop-color:#acacac;stop-opacity:1;"
         offset="0"
         id="stop3800" />
      <stop
         style="stop-color:#acacac;stop-opacity:0.68421054;"
         offset="1"
         id="stop3802" />
    </linearGradient>
    <linearGradient
       inkscape:collect="always"
       xlink:href="#linearGradient3889"
       id="linearGradient3895"
       x1="12.401575"
       y1="17.716536"
       x2="23.031496"
       y2="17.716536"
       gradientUnits="userSpaceOnUse" />
    <linearGradient
       inkscape:collect="always"
       xlink:href="#linearGradient3889"
       id="linearGradient3901"
       gradientUnits="userSpaceOnUse"
       x1="12.401575"
       y1="17.716536"
       x2="23.031496"
       y2="17.716536" />
  </defs>
  <sodipodi:namedview
     id="base"
     pagecolor="#ffffff"
     bordercolor="#666666"
     borderopacity="1.0"
     inkscape:pageopacity="0.0"
     inkscape:pageshadow="2"
     inkscape:zoom="22.279382"
     inkscape:cx="18.958114"
     inkscape:cy="19.807526"
     inkscape:document-units="px"
     inkscape:current-layer="layer1"
     showgrid="true"
     units="cm"
     inkscape:window-width="1920"
     inkscape:window-height="1021"
     inkscape:window-x="0"
     inkscape:window-y="27"
     inkscape:window-maximized="1">
    <inkscape:grid
       type="xygrid"
       id="grid2985"
       empspacing="5"
       visible="true"
       enabled="true"
       snapvisiblegridlinesonly="true"
       units="cm"
       spacingx="0.025cm"
       spacingy="0.025cm"
       originx="0cm"
       originy="0cm" />
  </sodipodi:namedview>
  <metadata
     id="metadata7">
    <rdf:RDF>
      <cc:Work
         rdf:about="">
        <dc:format>image/svg+xml</dc:format>
        <dc:type
           rdf:resource="http://purl.org/dc/dcmitype/StillImage" />
        <dc:title></dc:title>
      </cc:Work>
    </rdf:RDF>
  </metadata>
  <g
     inkscape:label="Calque 1"
     inkscape:groupmode="layer"
     id="layer1"
     transform="translate(0,-1016.9291)">
    <path
       style="fill:#acacac;fill-opacity:1;stroke:none"
       d="m 17.71875,3.53125 c -7.8276583,0 -14.1875,6.3598417 -14.1875,14.1875 0,7.827657 6.3598417,14.15625 14.1875,14.15625 l 14.171014,0.01476 0,-2.65748 -14.171014,-0.01353 c -6.359972,0 -11.53125,-5.140028 -11.53125,-11.5 0,-6.359972 5.171278,-11.53125 11.53125,-11.53125 z"
       transform="translate(0,1016.9291)"
       id="path3873"
       inkscape:connector-curvature="0"
       sodipodi:nodetypes="csccccscc" />
    <path
       style="fill:#acacac;fill-opacity:1;stroke:none"
       d="m 17.71875,7.09375 c -5.870744,0 -10.625,4.754256 -10.625,10.625 0,5.870743 4.754256,10.625 10.625,10.625 l 14.171014,0.0027 0,-2.65748 L 17.71875,25.6875 C 13.315692,25.6875 9.75,22.121807 9.75,17.71875 9.75,13.315692 13.315692,9.75 17.71875,9.75 c 1.284813,0 2.488,0.303115 3.5625,0.84375 l 1.1875,-2.375 c -1.43032,-0.7178667 -3.040698,-1.125 -4.75,-1.125 z"
       transform="translate(0,1016.9291)"
       id="path3904"
       inkscape:connector-curvature="0"
       sodipodi:nodetypes="ssccccssccs" />
    <path
       style="fill:#acacac;fill-opacity:1;stroke:none"
       d="m 17.71875,10.625 c -3.913829,0 -7.09375,3.179921 -7.09375,7.09375 0,3.913828 3.179921,7.09375 7.09375,7.09375 l 14.171014,-0.0094 0,-2.65748 -14.171014,0.01058 c -2.446144,0 -4.4375,-1.991357 -4.4375,-4.4375 0,-2.446144 1.991356,-4.4375 4.4375,-4.4375 1.727676,0 3.20495,1.021534 3.9375,2.46875 l 2.375,-1.1875 C 22.864428,12.23883 20.490348,10.625 17.71875,10.625 z"
       transform="translate(0,1016.9291)"
       id="path3911"
       inkscape:connector-curvature="0"
       sodipodi:nodetypes="ssccccssccs" />
  </g>
</svg>
