<?xml version="1.0" encoding="UTF-8" standalone="no"?>
<!-- Created with Inkscape (http://www.inkscape.org/) -->

<svg
   xmlns:dc="http://purl.org/dc/elements/1.1/"
   xmlns:cc="http://creativecommons.org/ns#"
   xmlns:rdf="http://www.w3.org/1999/02/22-rdf-syntax-ns#"
   xmlns:svg="http://www.w3.org/2000/svg"
   xmlns="http://www.w3.org/2000/svg"
   xmlns:sodipodi="http://sodipodi.sourceforge.net/DTD/sodipodi-0.dtd"
   xmlns:inkscape="http://www.inkscape.org/namespaces/inkscape"
   width="35.433071"
   height="35.433071"
   id="svg2"
   version="1.1"
   inkscape:version="0.48.4 r9939"
   sodipodi:docname="downloads.svg">
  <defs
     id="defs4">
    <linearGradient
       id="linearGradient5256">
      <stop
         style="stop-color:#acacac;stop-opacity:1;"
         offset="0"
         id="stop5258" />
      <stop
         style="stop-color:#acacac;stop-opacity:0.99342108;"
         offset="1"
         id="stop5260" />
    </linearGradient>
    <linearGradient
       id="linearGradient3798">
      <stop
         style="stop-color:#acacac;stop-opacity:1;"
         offset="0"
         id="stop3800" />
      <stop
         style="stop-color:#acacac;stop-opacity:0.68421054;"
         offset="1"
         id="stop3802" />
    </linearGradient>
  </defs>
  <sodipodi:namedview
     id="base"
     pagecolor="#ffffff"
     bordercolor="#666666"
     borderopacity="1.0"
     inkscape:pageopacity="0.0"
     inkscape:pageshadow="2"
     inkscape:zoom="22.279382"
     inkscape:cx="17.799448"
     inkscape:cy="17.654675"
     inkscape:document-units="px"
     inkscape:current-layer="layer1"
     showgrid="true"
     units="cm"
     inkscape:window-width="1920"
     inkscape:window-height="1017"
     inkscape:window-x="0"
     inkscape:window-y="30"
     inkscape:window-maximized="1">
    <inkscape:grid
       type="xygrid"
       id="grid2985"
       empspacing="5"
       visible="true"
       enabled="true"
       snapvisiblegridlinesonly="true"
       units="cm"
       spacingx="0.0125cm"
       spacingy="0.05cm"
       originx="0cm"
       originy="0cm" />
  </sodipodi:namedview>
  <metadata
     id="metadata7">
    <rdf:RDF>
      <cc:Work
         rdf:about="">
        <dc:format>image/svg+xml</dc:format>
        <dc:type
           rdf:resource="http://purl.org/dc/dcmitype/StillImage" />
        <dc:title></dc:title>
      </cc:Work>
    </rdf:RDF>
  </metadata>
  <g
     inkscape:label="Calque 1"
     inkscape:groupmode="layer"
     id="layer1"
     transform="translate(0,-1016.9291)">
    <path
       style="fill:#acacac;fill-opacity:1;fill-rule:evenodd;stroke:none"
       d="M 3.6875 5.4375 C 3.600983 5.5162 3.53125 5.6273 3.53125 5.75 L 3.53125 8.40625 C 3.53125 8.65155 3.7546363 8.84375 4 8.84375 L 7.0625 8.84375 L 3.6875 5.4375 z M 31.75 5.4375 L 28.34375 8.84375 L 31.4375 8.84375 C 31.682864 8.84375 31.875 8.65155 31.875 8.40625 L 31.875 5.75 C 31.875 5.6273 31.828705 5.5162 31.75 5.4375 z M 4 15.9375 C 3.7546488 15.9375 3.53125 16.1296 3.53125 16.375 L 3.53125 19.03125 C 3.53125 19.27665 3.7546488 19.5 4 19.5 L 17.71875 19.5 L 14.15625 15.9375 L 4 15.9375 z M 17.71875 19.5 L 31.4375 19.5 C 31.682852 19.5 31.875 19.27665 31.875 19.03125 L 31.875 16.375 C 31.875 16.1296 31.682852 15.9375 31.4375 15.9375 L 21.28125 15.9375 L 17.71875 19.5 z M 4 26.5625 C 3.7546276 26.5625 3.53125 26.78585 3.53125 27.03125 L 3.53125 29.6875 C 3.53125 29.9329 3.7546276 30.125 4 30.125 L 31.4375 30.125 C 31.682872 30.125 31.875 29.9329 31.875 29.6875 L 31.875 27.03125 C 31.875 26.78585 31.682872 26.5625 31.4375 26.5625 L 4 26.5625 z "
       transform="translate(0,1016.9291)"
       id="rect3010" />
    <path
       style="fill:#acacac;stroke:none;stroke-width:1px;stroke-linecap:butt;stroke-linejoin:miter;stroke-opacity:1;fill-opacity:1"
       d="m 17.716535,12.401575 -6.6437,-7.0866141 13.287401,0 z"
       id="path5947"
       inkscape:connector-curvature="0"
       transform="translate(0,1016.9291)" />
  </g>
</svg>
