<?xml version="1.0" encoding="UTF-8" standalone="no"?>
<!-- Created with Inkscape (http://www.inkscape.org/) -->
<svg xmlns="http://www.w3.org/2000/svg" version="1.1" viewBox="0 0 50 50">
 <rect id="rect1" y="21.038" width="8.8592" x="3.0136" height="16.977"/>
 <rect id="rect2" height="20.633" width="8.8592" y="21.038" x="11.874" fill="#ffd200"/>
 <rect id="rect3" y="21.038" width="8.8603" x="20.733" height="27.943"/>
 <rect id="rect4" height="23.071" width="8.8592" y="21.038" x="29.593" fill="#ffd200"/>
 <rect id="rect5" y="21.038" width="8.8603" x="38.453" height="18.193"/>
 <path d="m23.532,7.8378c0,3.2314-2.6325,5.8546-5.878,5.8546h-12.734c-2.1657,0-3.9195-1.748-3.9195-3.905,0-2.1571,1.7538-3.9016,3.9195-3.9016,2.1633,0,3.9183,1.7445,3.9183,3.9016,0,1.1688-0.5148,2.2129-1.3291,2.9285h2.3096c0.97811,0,1.9586-1.952,1.9586-4.8793v-0.98c0-3.2338,2.6325-5.8535,5.8769-5.8535,3.2467,0,5.878,2.6197,5.878,5.8535v0.9812z"/>
 <path d="m26.471,6.8378c0-3.2338,2.6313-5.8534,5.8769-5.8534s5.878,2.6196,5.878,5.8534v0.9801c0,2.9273,0.98045,4.8792,1.9586,4.8792h2.3084c-0.81314-0.7143-1.3291-1.7596-1.3291-2.9285,0-2.157,1.755-3.9015,3.9183-3.9015,2.1645,0,3.9183,1.7445,3.9183,3.9015,0,2.1571-1.7538,3.9051-3.9183,3.9051h-12.734c-3.2467,0-5.8769-2.6232-5.8769-5.8547v-0.9815z"/>
</svg>
