<?xml version="1.0" encoding="UTF-8" standalone="no"?>
<!-- Created with Inkscape (http://www.inkscape.org/) -->

<svg
   xmlns:dc="http://purl.org/dc/elements/1.1/"
   xmlns:cc="http://creativecommons.org/ns#"
   xmlns:rdf="http://www.w3.org/1999/02/22-rdf-syntax-ns#"
   xmlns:svg="http://www.w3.org/2000/svg"
   xmlns="http://www.w3.org/2000/svg"
   xmlns:sodipodi="http://sodipodi.sourceforge.net/DTD/sodipodi-0.dtd"
   xmlns:inkscape="http://www.inkscape.org/namespaces/inkscape"
   width="35.433071"
   height="35.433071"
   id="svg2"
   version="1.1"
   inkscape:version="0.48.4 r9939"
   sodipodi:docname="settings.svg">
  <defs
     id="defs4">
    <linearGradient
       id="linearGradient5256">
      <stop
         style="stop-color:#acacac;stop-opacity:1;"
         offset="0"
         id="stop5258" />
      <stop
         style="stop-color:#acacac;stop-opacity:0.99342108;"
         offset="1"
         id="stop5260" />
    </linearGradient>
    <linearGradient
       id="linearGradient3798">
      <stop
         style="stop-color:#acacac;stop-opacity:1;"
         offset="0"
         id="stop3800" />
      <stop
         style="stop-color:#acacac;stop-opacity:0.68421054;"
         offset="1"
         id="stop3802" />
    </linearGradient>
  </defs>
  <sodipodi:namedview
     id="base"
     pagecolor="#ffffff"
     bordercolor="#666666"
     borderopacity="1.0"
     inkscape:pageopacity="0.0"
     inkscape:pageshadow="2"
     inkscape:zoom="22.279382"
     inkscape:cx="9.5735522"
     inkscape:cy="19.182973"
     inkscape:document-units="px"
     inkscape:current-layer="layer1"
     showgrid="true"
     units="cm"
     inkscape:window-width="1920"
     inkscape:window-height="1017"
     inkscape:window-x="0"
     inkscape:window-y="30"
     inkscape:window-maximized="1">
    <inkscape:grid
       type="xygrid"
       id="grid2985"
       empspacing="8"
       visible="true"
       enabled="true"
       snapvisiblegridlinesonly="true"
       units="cm"
       spacingx="0.0125cm"
       spacingy="0.0125cm"
       originx="0cm"
       originy="0cm" />
  </sodipodi:namedview>
  <metadata
     id="metadata7">
    <rdf:RDF>
      <cc:Work
         rdf:about="">
        <dc:format>image/svg+xml</dc:format>
        <dc:type
           rdf:resource="http://purl.org/dc/dcmitype/StillImage" />
        <dc:title></dc:title>
      </cc:Work>
    </rdf:RDF>
  </metadata>
  <g
     inkscape:label="Calque 1"
     inkscape:groupmode="layer"
     id="layer1"
     transform="translate(0,-1016.9291)">
    <path
       style="fill:#acacac;fill-opacity:1;fill-rule:evenodd;stroke:none"
       d="M 15.53125 3.53125 C 15.28585 3.53125 15.064643 3.7546 15.0625 4 L 15.0625 7.4375 C 14.092469 7.6870779 13.185881 8.0667086 12.34375 8.5625 L 9.90625 6.125 C 9.7327967 5.9514 9.423524 5.9514 9.25 6.125 L 6.125 9.21875 C 5.951476 9.39225 5.9529913 9.73115 6.125 9.90625 L 8.5625 12.34375 C 8.0667086 13.185881 7.6870779 14.092469 7.4375 15.0625 L 4 15.0625 C 3.7546488 15.06238 3.53125 15.2546 3.53125 15.5 L 3.53125 19.90625 C 3.53125 20.15165 3.7546506 20.375939 4 20.375 L 7.4375 20.375 C 7.6871578 21.339636 8.0691929 22.255838 8.5625 23.09375 L 6.125 25.53125 C 5.9514256 25.70465 5.9514759 26.014 6.125 26.1875 L 9.21875 29.3125 C 9.392274 29.486 9.7334258 29.4867 9.90625 29.3125 L 12.34375 26.875 C 13.185881 27.370791 14.092469 27.750422 15.0625 28 L 15.0625 31.4375 C 15.061546 31.6829 15.28585 31.90625 15.53125 31.90625 L 19.9375 31.90625 C 20.1829 31.90625 20.3751 31.6829 20.375 31.4375 L 20.375 28 C 21.339636 27.750342 22.255838 27.368307 23.09375 26.875 L 25.53125 29.3125 C 25.704099 29.4867 26.045226 29.486 26.21875 29.3125 L 29.3125 26.1875 C 29.486024 26.014 29.486097 25.70475 29.3125 25.53125 L 26.875 23.09375 C 27.368307 22.255838 27.750342 21.339636 28 20.375 L 31.4375 20.375 C 31.682849 20.376 31.90625 20.15165 31.90625 19.90625 L 31.90625 15.5 C 31.90625 15.2546 31.682851 15.0624 31.4375 15.0625 L 28 15.0625 C 27.750422 14.092469 27.370791 13.185881 26.875 12.34375 L 29.3125 9.90625 C 29.486695 9.73345 29.486024 9.39225 29.3125 9.21875 L 26.1875 6.125 C 26.013976 5.9515 25.704668 5.9515 25.53125 6.125 L 23.09375 8.5625 C 22.255838 8.0691929 21.339636 7.6871578 20.375 7.4375 L 20.375 4 C 20.3751 3.7546 20.1829 3.53125 19.9375 3.53125 L 15.53125 3.53125 z M 17.71875 12.40625 C 20.654122 12.40625 23.03125 14.783378 23.03125 17.71875 C 23.03125 20.654122 20.654122 23.03125 17.71875 23.03125 C 14.783378 23.03125 12.40625 20.654122 12.40625 17.71875 C 12.40625 14.783378 14.783378 12.40625 17.71875 12.40625 z "
       transform="translate(0,1016.9291)"
       id="rect3010" />
  </g>
</svg>
