<?xml version="1.0" encoding="UTF-8" standalone="no"?>
<!-- Created with Inkscape (http://www.inkscape.org/) -->

<svg
   xmlns:dc="http://purl.org/dc/elements/1.1/"
   xmlns:cc="http://creativecommons.org/ns#"
   xmlns:rdf="http://www.w3.org/1999/02/22-rdf-syntax-ns#"
   xmlns:svg="http://www.w3.org/2000/svg"
   xmlns="http://www.w3.org/2000/svg"
   xmlns:sodipodi="http://sodipodi.sourceforge.net/DTD/sodipodi-0.dtd"
   xmlns:inkscape="http://www.inkscape.org/namespaces/inkscape"
   width="15"
   height="15"
   id="svg5473"
   version="1.1"
   inkscape:version="0.47 r22583"
   sodipodi:docname="pause.svg">
  <defs
     id="defs5475">
    <inkscape:perspective
       sodipodi:type="inkscape:persp3d"
       inkscape:vp_x="0 : 526.18109 : 1"
       inkscape:vp_y="0 : 1000 : 0"
       inkscape:vp_z="744.09448 : 526.18109 : 1"
       inkscape:persp3d-origin="372.04724 : 350.78739 : 1"
       id="perspective5481" />
    <inkscape:perspective
       id="perspective5464"
       inkscape:persp3d-origin="0.5 : 0.33333333 : 1"
       inkscape:vp_z="1 : 0.5 : 1"
       inkscape:vp_y="0 : 1000 : 0"
       inkscape:vp_x="0 : 0.5 : 1"
       sodipodi:type="inkscape:persp3d" />
  </defs>
  <sodipodi:namedview
     id="base"
     pagecolor="#ffffff"
     bordercolor="#666666"
     borderopacity="1.0"
     inkscape:pageopacity="0.0"
     inkscape:pageshadow="2"
     inkscape:zoom="15.839192"
     inkscape:cx="-7.5780233"
     inkscape:cy="5.7039834"
     inkscape:document-units="px"
     inkscape:current-layer="layer1"
     showgrid="false"
     inkscape:window-width="1918"
     inkscape:window-height="1175"
     inkscape:window-x="0"
     inkscape:window-y="1"
     inkscape:window-maximized="1" />
  <metadata
     id="metadata5478">
    <rdf:RDF>
      <cc:Work
         rdf:about="">
        <dc:format>image/svg+xml</dc:format>
        <dc:type
           rdf:resource="http://purl.org/dc/dcmitype/StillImage" />
        <dc:title />
      </cc:Work>
    </rdf:RDF>
  </metadata>
  <g
     inkscape:label="Calque 1"
     inkscape:groupmode="layer"
     id="layer1"
     transform="translate(-447.42171,-275.65475)">
    <g
       transform="matrix(1.0728438,0,0,1.0728438,321.89337,142.62723)"
       id="g1205">
      <path
         d="m 123.996,125.122 c 3.233,0 5.864,2.631 5.864,5.864 0,3.233 -2.631,5.864 -5.864,5.864 -3.233,0 -5.864,-2.631 -5.864,-5.864 0,-3.233 2.631,-5.864 5.864,-5.864 m 0,-1 c -3.791,0 -6.864,3.073 -6.864,6.864 0,3.791 3.073,6.864 6.864,6.864 3.791,0 6.864,-3.073 6.864,-6.864 0,-3.791 -3.073,-6.864 -6.864,-6.864 l 0,0 z"
         id="path1207" />
    </g>
    <g
       transform="matrix(1.0728438,0,0,1.0728438,321.89337,142.62723)"
       id="g1211">
      <line
         x1="125.482"
         y1="127.704"
         x2="125.482"
         y2="134.11301"
         id="line1213"
         style="fill:none;stroke:#000000;stroke-linecap:round" />
      <line
         x1="122.51"
         y1="127.704"
         x2="122.51"
         y2="134.11301"
         id="line1215"
         style="fill:none;stroke:#000000;stroke-linecap:round" />
    </g>
  </g>
</svg>
