<?xml version="1.0" encoding="UTF-8" standalone="no"?>
<!-- Created with Inkscape (http://www.inkscape.org/) -->

<svg
   xmlns:dc="http://purl.org/dc/elements/1.1/"
   xmlns:cc="http://creativecommons.org/ns#"
   xmlns:rdf="http://www.w3.org/1999/02/22-rdf-syntax-ns#"
   xmlns:svg="http://www.w3.org/2000/svg"
   xmlns="http://www.w3.org/2000/svg"
   xmlns:sodipodi="http://sodipodi.sourceforge.net/DTD/sodipodi-0.dtd"
   xmlns:inkscape="http://www.inkscape.org/namespaces/inkscape"
   width="50"
   height="50"
   id="svg3705"
   version="1.1"
   inkscape:version="0.47pre4 r22446"
   sodipodi:docname="nestor.svg">
  <defs
     id="defs3707">
    <inkscape:perspective
       sodipodi:type="inkscape:persp3d"
       inkscape:vp_x="0 : 526.18109 : 1"
       inkscape:vp_y="0 : 1000 : 0"
       inkscape:vp_z="744.09448 : 526.18109 : 1"
       inkscape:persp3d-origin="372.04724 : 350.78739 : 1"
       id="perspective3713" />
    <inkscape:perspective
       id="perspective3694"
       inkscape:persp3d-origin="0.5 : 0.33333333 : 1"
       inkscape:vp_z="1 : 0.5 : 1"
       inkscape:vp_y="0 : 1000 : 0"
       inkscape:vp_x="0 : 0.5 : 1"
       sodipodi:type="inkscape:persp3d" />
  </defs>
  <sodipodi:namedview
     id="base"
     pagecolor="#ffffff"
     bordercolor="#666666"
     borderopacity="1.0"
     inkscape:pageopacity="0.0"
     inkscape:pageshadow="2"
     inkscape:zoom="3.959798"
     inkscape:cx="13.785885"
     inkscape:cy="30.58327"
     inkscape:document-units="px"
     inkscape:current-layer="layer1"
     showgrid="false"
     inkscape:window-width="1024"
     inkscape:window-height="579"
     inkscape:window-x="0"
     inkscape:window-y="0"
     inkscape:window-maximized="1" />
  <metadata
     id="metadata3710">
    <rdf:RDF>
      <cc:Work
         rdf:about="">
        <dc:format>image/svg+xml</dc:format>
        <dc:type
           rdf:resource="http://purl.org/dc/dcmitype/StillImage" />
        <dc:title />
      </cc:Work>
    </rdf:RDF>
  </metadata>
  <g
     inkscape:label="Calque 1"
     inkscape:groupmode="layer"
     id="layer1"
     transform="translate(0,-1002.3622)">
    <g
       id="g3736"
       transform="matrix(1.1699898,0,0,1.1653321,12.986712,-186.30417)">
      <rect
         id="rect32"
         height="23.979"
         width="7.573"
         y="1038.0928"
         x="6.6208577" />
      <rect
         style="fill:#ffd200"
         id="rect34"
         height="17.705999"
         width="7.572"
         y="1038.0928"
         x="-0.9511447" />
      <rect
         id="rect36"
         height="14.568"
         width="7.572"
         y="1038.0928"
         x="-8.5241432" />
      <rect
         style="fill:#ffd200"
         id="rect38"
         height="19.798"
         width="7.572"
         y="1038.0928"
         x="14.193855" />
      <rect
         id="rect40"
         height="15.612"
         width="7.573"
         y="1038.0928"
         x="21.765858" />
      <path
         id="path42"
         d="m 9.0128571,1026.7468 c 0,2.773 -2.25,5.024 -5.024,5.024 h -7.535 -3.349 c -1.851,0 -3.3500001,-1.5 -3.3500001,-3.351 0,-1.851 1.4990001,-3.348 3.3500001,-3.348 1.849,0 3.349,1.497 3.349,3.348 0,1.003 -0.44,1.899 -1.136,2.513 h 1.974 c 0.836,0 1.674,-1.675 1.674,-4.187 v -0.841 c 0,-2.775 2.25,-5.023 5.023,-5.023 2.775,0 5.024,2.248 5.024,5.023 v 0.842 z" />
      <path
         id="path44"
         d="m 11.524857,1025.9058 c 0,-2.775 2.249,-5.023 5.023,-5.023 2.774,0 5.024,2.248 5.024,5.023 v 0.841 c 0,2.512 0.838,4.187 1.674,4.187 h 1.973 c -0.695,-0.613 -1.136,-1.51 -1.136,-2.513 0,-1.851 1.5,-3.348 3.349,-3.348 1.85,0 3.349,1.497 3.349,3.348 0,1.851 -1.499,3.351 -3.349,3.351 h -3.349 -7.535 c -2.775,0 -5.023,-2.251 -5.023,-5.024 v -0.842 z" />
    </g>
  </g>
</svg>
