<?xml version="1.0" encoding="UTF-8" standalone="no"?>
<svg xmlns:svg="http://www.w3.org/2000/svg" xmlns="http://www.w3.org/2000/svg" width="35.433071" height="35.433071" id="svg2" version="1.1"><g id="icon"><path id="path416-8" d="m 3.6286139,7.0469001 0,9.7184999 c 0.8132204,0.1651 1.6046726,0.4058 2.3630493,0.6989 l 0,-8.0542999 23.5639278,0 0,16.5079999 -15.143485,0 c 0.29309,0.7584 0.533809,1.5499 0.69893,2.3631 l 16.807605,0 0,-21.2341999 z M 1.8313651,18.2964 l 0,2.3963 c 4.919423,0.5443 8.8413229,4.4329 9.3856329,9.3524 l 2.363049,0 C 13.019225,23.8224 8.0552435,18.8578 1.8313651,18.2964 z m 0,4.1603 0,2.3963 c 2.6360371,0.4848 4.739997,2.556 5.2253344,5.1921 l 2.3630493,0 C 8.893131,26.1052 5.7712675,22.9833 1.8313651,22.4567 z m 0,4.1936 0,3.3948 3.3948032,0 C 4.7998027,28.3891 3.4872918,27.0778 1.8313651,26.6503 z" style="fill-opacity:1;fill-rule:evenodd;stroke:none"></path></g></svg>