<?xml version="1.0" encoding="UTF-8" standalone="no"?>
<svg xmlns:svg="http://www.w3.org/2000/svg" xmlns="http://www.w3.org/2000/svg" width="35.433071" height="35.433071" id="svg2" version="1.1"><g id="layer7"><path style="fill-opacity:1;fill-rule:evenodd;stroke:none" d="m 6.1221531,3.5512001 c -0.1554717,0 -0.2874639,0.132 -0.2874639,0.287 l 0,15.1718999 c 0,0.1556 0.1319922,0.2876 0.2874639,0.2876 l 12.8719979,0 0.542989,7.57 3.130165,-2.8428 3.54539,7.857 2.523294,-1.2135 -3.545387,-7.8575 4.40778,-0.5426 -5.813159,-5.3662 0,-13.0638999 c 0,-0.155 -0.100059,-0.287 -0.255524,-0.287 l -17.4075459,0 z m 2.2358315,2.2358 12.9358804,0 c 0.155476,0 0.255496,0.1638 0.255523,0.3189 l 0,8.7201999 -3.098219,-2.8429 0.22358,3.1943 C 14.058341,13.7229 11.883204,9.4931001 8.1024609,14.219 l 0,-8.1130999 c 8.66e-5,-0.1551 0.100045,-0.3189 0.2555237,-0.3189 z m 9.9334764,0.8621 c -1.239975,0 -2.235828,1.0279 -2.235828,2.2677 0,1.2402999 0.995853,2.2357999 2.235828,2.2357999 1.239982,0 2.267776,-0.9955 2.267776,-2.2357999 l -0.0639,-0.3514 c -0.167735,-1.0956 -1.095057,-1.9163 -2.203892,-1.9163 z" id="rect3010-9"></path></g></svg>