<?xml version="1.0" encoding="UTF-8" standalone="no"?>
<svg xmlns:svg="http://www.w3.org/2000/svg" xmlns="http://www.w3.org/2000/svg" xlink="http://www.w3.org/1999/xlink" width="35.433071" height="35.433071" id="svg2" version="1.1"><g id="layer1" transform="translate(0,-1016.9291)"><path style="fill-opacity:1;stroke:#ffffff;stroke-width:0.16659088;stroke-opacity:1" d="m 21.133804,1046.1829 c -0.0064,0.7211 0.263324,1.3031 0.59575,1.9306 0.563301,1.0635 2.494754,1.109 2.652654,-0.2615 0.110006,-0.9548 -0.141274,-1.8209 -0.913203,-2.6182" id="path3972"></path><path style="fill-opacity:1;stroke:#acacac;stroke-width:0.16659088;stroke-opacity:1" d="m 18.53125,13.65625 c -2.118239,-0.03836 -4.46875,1.221888 -4.46875,3.90625 0,1.5273 0.478458,2.6984 0.34375,4.25 -0.07361,0.847921 -0.372506,1.546011 -0.65625,2.21875 1.375538,-1.096899 3.104114,-1.871691 4.875,-2.1875 1.944331,-0.346669 3.965664,-0.111836 5.625,0.8125 -1.185946,-1.936576 -2.339765,-4.219147 -2.40625,-6.6875 -0.14711,-1.480631 -1.664981,-2.282662 -3.3125,-2.3125 z m 1.90625,3.40625 c 0.332663,-6.7e-4 0.729126,0.09333 0.90625,0.25 0.375833,0.3324 0.56467,1.0926 0.65625,1.5 0.09158,0.4075 0.1295,1.0252 0.125,1.75 -0.0046,0.7355 -1.919569,0.3766 -2.3125,0.0625 -0.392931,-0.3142 -0.594598,-0.59015 -0.59375,-1.28125 6.14e-4,-0.529 0.587739,-2.1451 0.9375,-2.25 0.08744,-0.0262 0.170362,-0.03103 0.28125,-0.03125 z M 15.75,17.625 c 0.225792,-0.03332 0.502103,0.03272 0.78125,0.21875 0.442102,0.2946 1.11623,1.201 1.1875,1.75 0.183028,1.4091 -0.579033,1.94195 -1.53125,2.40625 -0.952218,0.4643 -1.36821,-1.73235 -1.4375,-2.53125 -0.06996,-0.8061 0.322623,-1.743798 1,-1.84375 z m 4.489277,1.356369 c -0.329729,0 -0.59375,0.264021 -0.59375,0.59375 0,0.329729 0.264021,0.59375 0.59375,0.59375 0.329729,0 0.59375,-0.264021 0.59375,-0.59375 0,-0.329729 -0.264021,-0.59375 -0.59375,-0.59375 z m -3.569643,0.619801 c -0.345468,0 -0.651166,0.305698 -0.651166,0.651166 0,0.345468 0.305698,0.679477 0.651166,0.679477 0.345468,0 0.679478,-0.334009 0.679478,-0.679477 0,-0.345468 -0.33401,-0.651166 -0.679478,-0.651166 z M 20.5,22.40625 c -0.247306,-0.0031 -0.498538,0.01214 -0.75,0.03125 -0.318835,0.02423 -0.648352,0.06788 -0.96875,0.125 -2.113035,0.376741 -4.165248,1.473866 -5.53125,2.96875 -0.166628,0.864088 -0.02528,1.786612 0.96875,2.96875 1.181203,1.4048 4.816187,0.8978 6.34375,0.8125 2.666839,-0.148762 5.471344,-2.437651 4.5,-5.125 C 23.839941,23.006765 22.231143,22.428224 20.5,22.40625 z" transform="translate(0,1016.9291)" id="path13"></path><path id="path27" style="fill-opacity:1;stroke:#acacac;stroke-width:0.16659088;stroke-opacity:1" d="m 16.6427,1030.9117 c -1.39413,-2.1615 -3.714074,-4.1401 -6.55122,-5.7942 -1.9326812,-1.1268 0.329214,3.04 0.934222,3.9975 0.605007,0.9576 2.342049,2.9086 3.305508,3.926"></path><path id="path29" style="fill-opacity:1;stroke:#acacac;stroke-width:0.16659088;stroke-opacity:1" d="m 18.678395,1030.6031 c -0.09848,-3.43 -0.06598,-3.2113 0.74718,-4.8283 0.813164,-1.617 1.554344,-2.9016 2.349512,-4.0753 0.620122,-0.9153 1.52506,-2.0201 1.251439,0.2718 -0.363458,3.0444 -0.839236,6.9357 -2.223778,9.27"></path><path style="fill-opacity:1;stroke:#acacac;stroke-width:0.16659088;stroke-opacity:1" d="m 21.053272,1030.7832 1.006489,-0.012 -0.484469,0.4969 0.819871,0.074 -0.919249,0.2361 0.409935,0.2484 -0.329479,0.017 -1.000512,-0.076" id="polyline31"></path><polyline style="fill-opacity:1;stroke:#acacac;stroke-width:0.03527;stroke-opacity:1" id="polyline33" points="2.55778,2.22466 2.55254,2.01962 2.48403,2.11975 2.3375,1.9677 2.34802,2.13602 2.21915,2.1255 2.33474,2.25913 " class="fil1 str1" transform="matrix(4.7233023,0,0,4.7233023,6.0749724,1020.098)"></polyline><path style="fill-opacity:1;stroke:#acacac;stroke-width:0.16659088;stroke-opacity:1" d="m 13.652661,1032.3088 -0.412722,0.5366 0.583847,-0.099 -0.409935,0.5217 0.767565,0 0.404683,-0.1832" id="polyline35"></path></g></svg>