<?xml version="1.0" encoding="UTF-8" standalone="no"?>
<svg xmlns:svg="http://www.w3.org/2000/svg" xmlns="http://www.w3.org/2000/svg" width="35.433071" height="35.433071" id="svg2" version="1.1"><g id="layer2"><path style="fill-opacity:1;fill-rule:evenodd;stroke:none" d="m 4,5.3125001 c -0.2453637,0 -0.46875,0.1921 -0.46875,0.4375 l 0,23.9374999 c 0,0.2454 0.2233863,0.4375 0.46875,0.4375 l 27.4375,0 c 0.245364,0 0.4375,-0.1921 0.4375,-0.4375 l 0,-23.9374999 c 0,-0.2454 -0.192136,-0.4375 -0.4375,-0.4375 l -27.4375,0 z m 3.53125,3.53125 20.375,0 c 0.245372,0 0.437456,0.22335 0.4375,0.46875 l 0,15.0624999 c -10.629922,0 -14.163386,-11.07705 -21.25,-2.21875 l 0,-12.8437499 c 1.364e-4,-0.2454 0.1921247,-0.46875 0.4375,-0.46875 z M 23.1875,10.1875 c -1.956915,0 -3.53125,1.605586 -3.53125,3.5625 0,1.956915 1.574335,3.53125 3.53125,3.53125 1.956914,0 3.5625,-1.574335 3.5625,-3.53125 l -0.0625,-0.53125 c -0.264718,-1.729802 -1.75006,-3.03125 -3.5,-3.03125 z" id="rect3010-9"></path></g></svg>