<?xml version="1.0" encoding="UTF-8" standalone="no"?>
<svg xmlns:svg="http://www.w3.org/2000/svg" xmlns="http://www.w3.org/2000/svg" width="35.433071" height="35.433071" id="svg2" version="1.1"><g id="layer1" transform="translate(0,-1016.9291)"><path style="fill-opacity:1;fill-rule:evenodd;stroke:none" d="M 4 5.3125 C 3.7546363 5.3125 3.53125 5.5046 3.53125 5.75 L 3.53125 29.6875 C 3.53125 29.9329 3.7546363 30.125 4 30.125 L 31.4375 30.125 C 31.682864 30.125 31.875 29.9329 31.875 29.6875 L 31.875 5.75 C 31.875 5.5046 31.682864 5.3125 31.4375 5.3125 L 4 5.3125 z M 7.53125 8.84375 L 27.90625 8.84375 C 28.151622 8.84375 28.343706 9.0671 28.34375 9.3125 L 28.34375 24.375 C 17.713828 24.375 14.180364 13.29795 7.09375 22.15625 L 7.09375 9.3125 C 7.0938864 9.0671 7.2858747 8.84375 7.53125 8.84375 z M 23.1875 10.1875 C 21.230585 10.1875 19.65625 11.793086 19.65625 13.75 C 19.65625 15.706915 21.230585 17.28125 23.1875 17.28125 C 25.144414 17.28125 26.75 15.706915 26.75 13.75 L 26.6875 13.21875 C 26.422782 11.488948 24.93744 10.1875 23.1875 10.1875 z " transform="translate(0,1016.9291)" id="rect3010"></path></g></svg>