<?xml version="1.0" encoding="UTF-8" standalone="no"?>
<svg xmlns:svg="http://www.w3.org/2000/svg" xmlns="http://www.w3.org/2000/svg" width="35.433071" height="35.433071" id="svg2" version="1.1"><g id="icon"><path style="fill-opacity:1;stroke:none" d="M 17.256872,5.916554 C 14.118678,2.7787201 9.0263801,2.7500872 5.8881882,5.8879208 2.7499964,9.0257542 2.7786326,14.117472 5.9168242,17.255306 c 2.417796,2.417519 5.9634158,2.939693 8.9059458,1.632093 l 2.835013,2.834688 2.462736,0 -0.02864,1.632093 0.801821,0.801731 0.859095,0 -0.02864,1.632091 0.400912,0.400866 3.264558,0 0,3.264187 0.400911,0.400864 1.632279,-0.02864 -0.02864,1.632094 0.429547,0.429497 4.037744,-0.02864 0.02864,-4.037283 L 18.889154,14.821482 C 20.1969,11.879289 19.674668,8.3340739 17.256874,5.916554 z M 9.9545679,6.6896506 c 0.8966271,0.8965239 0.8966271,2.3676627 0,3.2641856 -0.8966254,0.8965248 -2.3679322,0.8965248 -3.2645584,0 C 5.7933834,9.0573133 5.8220199,7.6148077 6.718646,6.7182839 7.6152722,5.8217602 9.0579425,5.7931268 9.9545679,6.6896506 z" id="path3769-0"></path></g></svg>