<?xml version="1.0" encoding="UTF-8" standalone="no"?>
<svg xmlns:svg="http://www.w3.org/2000/svg" xmlns="http://www.w3.org/2000/svg" width="35.433071" height="35.433071" id="svg2" version="1.1"><g id="layer4"><path style="fill-opacity:1;stroke:none" d="m 7.0625,14.1875 c -1.956914,0 -3.53125,1.57435 -3.53125,3.53125 0,1.957 1.574336,3.53125 3.53125,3.53125 1.956914,0 3.53125,-1.57425 3.53125,-3.53125 0,-1.9569 -1.574336,-3.53125 -3.53125,-3.53125 z m 10.625,0 c -1.956914,0 -3.53125,1.57435 -3.53125,3.53125 0,1.957 1.574336,3.53125 3.53125,3.53125 1.956914,0 3.5625,-1.57425 3.5625,-3.53125 0,-1.9569 -1.605586,-3.53125 -3.5625,-3.53125 z m 10.65625,0 c -1.956915,0 -3.53125,1.574336 -3.53125,3.53125 0,1.956914 1.574335,3.53125 3.53125,3.53125 1.956914,0 3.53125,-1.574336 3.53125,-3.53125 0,-1.956914 -1.574336,-3.53125 -3.53125,-3.53125 z" id="path3035-1"></path></g></svg>