<?xml version="1.0" encoding="UTF-8" standalone="no"?>
<svg xmlns:svg="http://www.w3.org/2000/svg" xmlns="http://www.w3.org/2000/svg" version="1.1" id="svg2" height="35.433071" width="35.433071"><g id="layer1"><path id="path3155-6-8" d="m 14.680193,24.8032 c 2.024228,0 4.048456,0 6.072685,0 0.708668,0.08 0.46262,0.8925 0.506964,1.3835 0,1.732 0,3.4641 0,5.1961 -0.08033,0.7087 -0.892591,0.4626 -1.38353,0.507 -1.73204,0 -3.464079,0 -5.196119,0 -0.708668,-0.08 -0.46262,-0.8926 -0.506965,-1.3836 0,-1.732 0,-3.464 0,-5.1961 -0.0073,-0.2718 0.235143,-0.5143 0.506965,-0.5069 z" style="fill-opacity:1;fill-rule:nonzero;stroke:none"></path><path id="path3157-3-2" d="m 14.680193,3.5432999 c 2.024228,0 4.048456,0 6.072685,0 0.708668,0.08 0.46262,0.8926 0.506964,1.3835 0,1.7321 0,3.4641 0,5.1962001 -0.08033,0.7086 -0.892591,0.4626 -1.38353,0.5069 -1.73204,0 -3.464079,0 -5.196119,0 -0.708668,-0.08 -0.46262,-0.8926001 -0.506965,-1.3835001 0,-1.732 0,-3.4641 0,-5.1961 -0.0073,-0.2719 0.235143,-0.5143 0.506965,-0.507 z" style="fill-opacity:1;fill-rule:nonzero;stroke:none"></path><path id="path3159-9-3" d="m 14.680193,14.1732 c 2.024228,0 4.048456,0 6.072685,0 0.708668,0.08 0.46262,0.8926 0.506964,1.3836 0,1.732 0,3.464 0,5.1961 -0.08033,0.7086 -0.892591,0.4626 -1.38353,0.5069 -1.73204,0 -3.464079,0 -5.196119,0 -0.708668,-0.08 -0.46262,-0.8925 -0.506965,-1.3835 0,-1.732 0,-3.4641 0,-5.1961 -0.0073,-0.2718 0.235143,-0.5143 0.506965,-0.507 z" style="fill-opacity:1;fill-rule:nonzero;stroke:none"></path></g></svg>