<?xml version="1.0" encoding="UTF-8" standalone="no"?>
<svg xmlns:svg="http://www.w3.org/2000/svg" xmlns="http://www.w3.org/2000/svg" width="35.433071" height="35.433071" id="svg2" version="1.1"><g id="layer1" transform="translate(0,-1016.9291)"><path style="fill-opacity:1;stroke:none" d="m 21.234375,1024.0072 c 0,-1.9569 -1.57435,-3.5312 -3.53125,-3.5312 -1.957,0 -3.53125,1.5743 -3.53125,3.5312 0,1.9569 1.57425,3.5313 3.53125,3.5313 1.9569,0 3.53125,-1.5744 3.53125,-3.5313 z m 0,10.625 c 0,-1.9569 -1.57435,-3.5312 -3.53125,-3.5312 -1.957,0 -3.53125,1.5743 -3.53125,3.5312 0,1.9569 1.57425,3.5625 3.53125,3.5625 1.9569,0 3.53125,-1.6056 3.53125,-3.5625 z m 0,10.6563 c 0,-1.9569 -1.574336,-3.5313 -3.53125,-3.5313 -1.956914,0 -3.53125,1.5744 -3.53125,3.5313 0,1.9569 1.574336,3.5312 3.53125,3.5312 1.956914,0 3.53125,-1.5743 3.53125,-3.5312 z" id="path3035"></path></g></svg>