<?xml version="1.0" encoding="UTF-8" standalone="no"?>
<svg xmlns:svg="http://www.w3.org/2000/svg" xmlns="http://www.w3.org/2000/svg" width="28.346457" height="29.409449" id="svg2" version="1.1"><g id="nestor-icon" transform="translate(0,-1022.9528)"><rect style="fill-opacity:1;fill-rule:evenodd;stroke:none" id="rect3010" width="28.346457" height="3.5432885" x="0.012057066" y="1023.1299" ry="0.4428947"></rect><path style="fill-opacity:1;fill-rule:evenodd;stroke:none" d="M 0.46875,1044.3775 C 0.2233777,1044.3773 0,1044.6009 0,1044.8462 l 0,2.6563 c 0,0.2454 0.2233776,0.4375 0.46875,0.4375 l 15.488189,-0.01 -1.771653,-1.7717 1.771653,-1.7716 z" id="rect3012"></path><path style="fill-opacity:1;fill-rule:evenodd;stroke:none" d="M 0.46875,1033.7525 C 0.2233989,1033.7525 0,1033.9446 0,1034.19 l 0,2.6562 c 0,0.2454 0.2233989,0.4688 0.46875,0.4688 l 23.84375,0 3.90625,-3.4375 c -0.08005,-0.08 -0.189824,-0.125 -0.3125,-0.125 l -27.4375,0 z" id="rect3014"></path><path style="fill-opacity:1;stroke:none" d="m 28.358514,1039.9607 0,12.4015 -7.086614,-6.2007 z" id="path3834-2"></path></g></svg>