<?xml version="1.0" encoding="UTF-8" standalone="no"?>
<svg xmlns:svg="http://www.w3.org/2000/svg" xmlns="http://www.w3.org/2000/svg" width="35.433071" height="35.433071" id="svg2" version="1.1"><g id="nestor-icon" transform="translate(0,-1016.9292)"><rect style="fill-opacity:1;fill-rule:evenodd;stroke:none" id="rect3010" width="28.346457" height="3.5432885" x="3.6080973" y="1022.2336" ry="0.4428947"></rect><path style="fill-opacity:1;fill-rule:evenodd;stroke:none" d="m 4.0647895,1043.4795 c -0.245372,-2e-4 -0.46875,0.2234 -0.46875,0.4687 l 0,2.6563 c 0,0.2454 0.223378,0.4375 0.46875,0.4375 l 15.4881845,-0.01 -1.771653,-1.7717 1.771653,-1.7716 z" id="rect3012"></path><path style="fill-opacity:1;fill-rule:evenodd;stroke:none" d="m 4.0647895,1032.8545 c -0.245351,0 -0.46875,0.1921 -0.46875,0.4375 l 0,2.6562 c 0,0.2454 0.223399,0.4688 0.46875,0.4688 l 23.8437455,0 3.90625,-3.4375 c -0.08005,-0.08 -0.189824,-0.125 -0.3125,-0.125 l -27.4374955,0 z" id="rect3014"></path><path style="fill-opacity:1;stroke:none" d="m 31.954549,1039.0627 0,12.4015 -7.086614,-6.2007 z" id="path3834-2"></path></g></svg>