<?xml version="1.0" encoding="UTF-8" standalone="no"?>
<svg xmlns:svg="http://www.w3.org/2000/svg" xmlns="http://www.w3.org/2000/svg" width="35.433071" height="35.433071" id="svg2" version="1.1"><g id="layer1"><path style="fill-opacity:1;fill-rule:evenodd;stroke:none" d="m 4.022006,5.3018001 c -0.2454693,0 -0.4689757,0.1921 -0.4689757,0.4375 l 0,2.6562 c 0,0.2454 0.2235064,0.4688 0.4689757,0.4688 l 23.855229,0 3.908131,-3.4375 c -0.08009,-0.08 -0.189916,-0.125 -0.312651,-0.125 l -27.450709,0 z" id="rect3014-74"></path><path style="fill-opacity:1;stroke:none" d="m 31.925197,11.5219 0,12.4015 -7.090026,-6.2007 z" id="path3834-2-1"></path><path style="fill-opacity:1;fill-rule:evenodd;stroke:none" d="m 3.9768497,15.9438 c -0.2454904,-2e-4 -0.4689756,0.2234 -0.4689756,0.4687 l 0,2.6563 c 0,0.2454 0.2234851,0.4375 0.4689756,0.4375 l 15.4956443,-0.01 -1.772506,-1.7717 1.772506,-1.7716 z" id="rect3012-9-9"></path><path style="fill-opacity:1;fill-rule:evenodd;stroke:none" d="m 4.0217558,30.1313 c -0.2454692,0 -0.4689756,-0.1921 -0.4689756,-0.4375 l 0,-2.6562 c 0,-0.2454 0.2235064,-0.4688 0.4689756,-0.4688 l 23.8552292,0 3.90813,3.4375 c -0.08009,0.08 -0.189915,0.125 -0.31265,0.125 l -27.4507092,0 z" id="rect3014-7-0"></path></g></svg>