<?xml version="1.0" encoding="UTF-8" standalone="no"?>
<svg xmlns:svg="http://www.w3.org/2000/svg" xmlns="http://www.w3.org/2000/svg" width="35.433071" height="35.433071" id="svg2" version="1.1"><g id="nestor-icon" transform="translate(0,-1022.9527)"><g id="g3566"><path id="rect3014" d="m 4.022006,1028.2545 c -0.2454693,0 -0.4689757,0.1921 -0.4689757,0.4375 l 0,2.6562 c 0,0.2454 0.2235064,0.4688 0.4689757,0.4688 l 23.855229,0 3.908131,-3.4375 c -0.08009,-0.08 -0.189916,-0.125 -0.312651,-0.125 l -27.450709,0 z" style="fill-opacity:1;fill-rule:evenodd;stroke:none"></path><path id="path3834-2" d="m 31.925197,1034.4746 0,12.4015 -7.090026,-6.2007 z" style="fill-opacity:1;stroke:none"></path><path id="rect3012-9" d="m 3.9768497,1038.8965 c -0.2454904,-2e-4 -0.4689756,0.2234 -0.4689756,0.4687 l 0,2.6563 c 0,0.2454 0.2234851,0.4375 0.4689756,0.4375 l 15.4956443,-0.01 -1.772506,-1.7717 1.772506,-1.7716 z" style="fill-opacity:1;fill-rule:evenodd;stroke:none"></path><path id="rect3014-7" d="m 4.0217558,1053.084 c -0.2454692,0 -0.4689756,-0.1921 -0.4689756,-0.4375 l 0,-2.6562 c 0,-0.2454 0.2235064,-0.4688 0.4689756,-0.4688 l 23.8552292,0 3.90813,3.4375 c -0.08009,0.08 -0.189915,0.125 -0.31265,0.125 l -27.4507092,0 z" style="fill-opacity:1;fill-rule:evenodd;stroke:none"></path></g></g></svg>