<?xml version="1.0" encoding="UTF-8" standalone="no"?>
<svg xmlns:svg="http://www.w3.org/2000/svg" xmlns="http://www.w3.org/2000/svg" width="35.433071" height="35.433071" id="svg2" version="1.1"><g id="layer3"><path style="fill-opacity:1;fill-rule:evenodd;stroke:none" d="m 7.0625,5.3125001 4.03125,3.53125 20.34375,0 c 0.245364,0 0.4375,-0.1922 0.4375,-0.4375 l 0,-2.65625 c 0,-0.2454 -0.192136,-0.4375 -0.4375,-0.4375 z m 10.654035,10.6131889 2.03125,1.78125 -2.03125,1.78125 13.720965,0.01181 c 0.245352,2.11e-4 0.4375,-0.22335 0.4375,-0.46875 l 0,-2.65625 c 0,-0.2454 -0.192148,-0.4375 -0.4375,-0.4375 z M 11.125,26.5625 7.0625,30.125 l 24.375,0 c 0.245372,0 0.4375,-0.1921 0.4375,-0.4375 l 0,-2.65625 c 0,-0.2454 -0.192128,-0.46875 -0.4375,-0.46875 z" id="rect3010-2"></path><path style="fill-opacity:1;stroke:none" d="m 3.5433071,8.8582681 0,17.7165349 10.6299209,-8.858267 z" id="path5393-5"></path></g></svg>