<?xml version="1.0" encoding="UTF-8" standalone="no"?>
<svg xmlns:svg="http://www.w3.org/2000/svg" xmlns="http://www.w3.org/2000/svg" width="35.433071" height="35.433071" id="svg2" version="1.1"><g id="icon"><path style="fill-opacity:1;stroke:none" d="m 27.418661,5.3262001 0,2.4497 c -5.486754,0 -8.597395,1.8048 -10.818403,4.1320999 0.647037,0.7958 1.261392,1.5943 1.785536,2.3796 0.477394,0.7152 0.920833,1.3792 1.365429,2.0291 1.723096,-2.0443 3.887098,-3.5713 7.667439,-3.5713 l 0,2.4886 7.912482,-4.9733 -7.912483,-4.9344999 z m -23.8425265,2.4497 0,4.9694999 c 11.9092685,0 7.9635155,14.8811 23.8425265,14.8811 l 0,2.4847 7.912483,-4.9344 -7.912483,-4.9733 0,2.4885 C 15.509394,22.692 19.455145,7.7759001 3.5761345,7.7759001 z M 11.278585,19.1558 C 9.5582028,21.1906 7.3435778,22.692 3.5761345,22.692 l 0,4.9345 c 5.4867397,0 8.5973955,-1.7697 10.8184055,-4.0971 -0.651829,-0.8098 -1.258279,-1.6251 -1.785537,-2.4146 -0.466404,-0.7004 -0.895838,-1.3298 -1.330418,-1.959 z" id="path4778-4"></path></g></svg>