<?xml version="1.0" encoding="UTF-8" standalone="no"?>
<svg xmlns:svg="http://www.w3.org/2000/svg" xmlns="http://www.w3.org/2000/svg" width="35.433071" height="35.433071" id="svg2" version="1.1"><g id="nestor-icon" transform="translate(0,-1016.9291)"><path style="fill-opacity:1;stroke:none" d="M 24.8125 6.65625 L 24.8125 8.84375 C 19.915164 8.84375 17.138695 10.454716 15.15625 12.53125 C 15.733786 13.243355 16.282134 13.954462 16.75 14.65625 C 17.176095 15.29542 17.57192 15.887155 17.96875 16.46875 C 19.506749 14.641034 21.438266 13.28125 24.8125 13.28125 L 24.8125 15.5 L 31.875 11.0625 L 24.8125 6.65625 z M 3.53125 8.84375 L 3.53125 13.28125 C 14.161171 13.28125 10.639271 26.5625 24.8125 26.5625 L 24.8125 28.78125 L 31.875 24.375 L 24.8125 19.9375 L 24.8125 22.15625 C 14.182578 22.15625 17.704478 8.84375 3.53125 8.84375 z M 10.40625 19 C 8.8707079 20.818157 6.8939846 22.15625 3.53125 22.15625 L 3.53125 26.5625 C 8.4285858 26.5625 11.205055 24.982784 13.1875 22.90625 C 12.605667 22.183793 12.064388 21.455946 11.59375 20.75 C 11.177468 20.125587 10.794166 19.564627 10.40625 19 z " transform="translate(0,1016.9291)" id="path4778"></path></g></svg>