<?xml version="1.0" encoding="UTF-8" standalone="no"?>
<svg xmlns:svg="http://www.w3.org/2000/svg" xmlns="http://www.w3.org/2000/svg" width="35.433071" height="35.433071" id="svg2" version="1.1"><g id="nestor-icon" transform="translate(0,-1016.9291)"><path style="fill-opacity:1;stroke:none" d="m 27.418661,1022.2553 0,2.4497 c -5.486754,0 -8.597395,1.8048 -10.818404,4.1321 0.647038,0.7958 1.261392,1.5943 1.785536,2.3796 0.477395,0.7152 0.920834,1.3792 1.36543,2.0291 1.723097,-2.0443 3.887098,-3.5713 7.667438,-3.5713 l 0,2.4886 7.912484,-4.9733 -7.912484,-4.9345 z m -23.8425265,2.4497 0,4.9695 c 11.9092675,0 7.9635155,14.8811 23.8425265,14.8811 l 0,2.4847 7.912484,-4.9344 -7.912484,-4.9733 0,2.4885 c -11.909268,0 -7.963516,-14.9161 -23.8425265,-14.9161 z m 7.7024505,11.3799 c -1.7203822,2.0348 -3.9350072,3.5362 -7.7024505,3.5362 l 0,4.9345 c 5.4867397,0 8.5973955,-1.7697 10.8184045,-4.0971 -0.651829,-0.8098 -1.258278,-1.6251 -1.785536,-2.4146 -0.466404,-0.7004 -0.895838,-1.3298 -1.330418,-1.959 z" id="path4778"></path></g></svg>