<?xml version="1.0" encoding="UTF-8" standalone="no"?>
<svg xmlns:svg="http://www.w3.org/2000/svg" xmlns="http://www.w3.org/2000/svg" width="35.433071" height="35.433071" id="svg2" version="1.1"><g id="nestor-icon" transform="translate(0,-1016.9291)"><path style="fill-opacity:1;fill-rule:nonzero;stroke:none" d="M 17.90625 3.53125 C 11.864802 3.4420357 6.228363 7.2680543 4.25 13.3125 L 8.46875 14.6875 C 9.9301538 10.20953 14.451497 7.3262947 19.25 8.09375 C 24.563979 8.9436487 28.193649 13.936021 27.34375 19.25 C 26.493851 24.563979 21.501479 28.193649 16.1875 27.34375 C 12.492899 26.752849 9.5837673 24.133498 8.46875 20.78125 L 4.25 22.15625 C 5.658791 26.438153 9.0284299 29.785313 13.3125 31.1875 C 20.751818 33.622408 28.752592 29.564318 31.1875 22.125 C 33.622408 14.685682 29.564318 6.6849083 22.125 4.25 C 20.730128 3.7934547 19.30043 3.5518379 17.90625 3.53125 z " id="path3179" transform="translate(0,1016.9291)"></path><path style="fill-opacity:1;stroke:none" d="m 4.1536696,1044.8859 8.8482014,-5.8398 -9.0173265,-4.3431 z" id="path4778"></path><path style="fill-opacity:1;fill-rule:nonzero;stroke:none" id="path3958" d="M 8.4153545,6.8651576 A 3.5433071,4.2076774 0 0 1 8.3965905,7.297612" transform="translate(0,1016.9291)"></path><path style="fill-opacity:1;fill-rule:nonzero;stroke:none" id="path3960" d="m 11.072834,10.851378 a 5.093504,7.7509842 0 0 1 -0.02697,0.796627" transform="translate(0,1016.9291)"></path></g></svg>