<?xml version="1.0" encoding="UTF-8" standalone="no"?>
<svg xmlns:svg="http://www.w3.org/2000/svg" xmlns="http://www.w3.org/2000/svg" width="35.433071" height="35.433071" id="svg2" version="1.1"><g id="icon"><path style="fill-opacity:1;fill-rule:nonzero;stroke:none" d="M 17.90625,3.5312503 C 11.864802,3.442036 6.228363,7.2680546 4.25,13.3125 l 4.21875,1.375 C 9.9301538,10.20953 14.451496,7.326295 19.25,8.0937503 24.563978,8.943649 28.193649,13.936021 27.34375,19.25 26.49385,24.563979 21.501478,28.193649 16.1875,27.34375 12.492899,26.752849 9.5837673,24.133498 8.46875,20.78125 L 4.25,22.15625 c 1.408791,4.281903 4.7784299,7.629063 9.0625,9.03125 7.439317,2.434908 15.440091,-1.623182 17.875,-9.0625 C 33.622408,14.685682 29.564318,6.6849086 22.125,4.2500003 20.730128,3.793455 19.300429,3.5518382 17.90625,3.5312503 z" id="path3179-8"></path><path style="fill-opacity:1;stroke:none" d="M 4.1536696,27.9568 13.001871,22.117 3.9845445,17.7739 z" id="path4778-5"></path><path style="fill-opacity:1;fill-rule:nonzero;stroke:none" id="path3958-5" d="M 8.4153545,6.8651576 A 3.5433071,4.2076774 0 0 1 8.3965905,7.297612"></path><path style="fill-opacity:1;fill-rule:nonzero;stroke:none" id="path3960-2" d="m 11.072834,10.851378 a 5.093504,7.7509842 0 0 1 -0.02697,0.796627"></path></g></svg>