<?xml version="1.0" encoding="UTF-8" standalone="no"?>
<svg xmlns:svg="http://www.w3.org/2000/svg" xmlns="http://www.w3.org/2000/svg" width="35.433071" height="35.433071" id="svg2" version="1.1"><g id="icon"><path style="fill-opacity:1;stroke:none" d="M 1.5310601,10.1298 9.6238036,5.0705001 c 0,0 0,0 0,2.5319 19.7260254,0 22.2550024,0 22.2550024,10.1140999 -2.528977,0 -2.023181,0 -5.057954,0 0,-5.0593 0,-5.0593 -17.1970484,-5.0593 0,2.5319 0,2.5319 0,2.5319 z" id="path5414-9"></path><path id="path5420-1" d="m 33.902034,25.3032 -8.092772,5.0593 c 0,0 0,0 0,-2.532 -19.7260385,0 -22.2550201,0 -22.2550201,-10.114 2.5289816,0 2.0231856,0 5.0579632,0 0,5.0593 0,5.0593 17.1970569,5.0593 0,-2.532 0,-2.532 0,-2.532 z" style="fill-opacity:1;stroke:none"></path></g></svg>