<?xml version="1.0" encoding="UTF-8" standalone="no"?>
<svg xmlns:svg="http://www.w3.org/2000/svg" xmlns="http://www.w3.org/2000/svg" width="35.433071" height="35.433071" id="svg2" version="1.1"><g id="icon"><path style="fill-opacity:1;stroke:none" d="M 7.5046301,31.8991 3.5323588,27.9286 10.176231,21.2495 C 9.1183262,19.4907 8.4889116,17.4433 8.4889116,15.2398 c 0,-6.4684999 5.2395484,-11.7058999 11.7058964,-11.7058999 6.466385,0 11.705921,5.2374 11.705921,11.7058999 0,6.4648 -5.239536,11.7058 -11.705921,11.7058 -2.203352,0 -4.251392,-0.6315 -6.011118,-1.6872 L 7.5046301,31.8991 z M 20.194808,23.4282 c 4.540208,0 8.225784,-3.6483 8.225784,-8.1884 0,-4.5402 -3.685576,-8.2268999 -8.225784,-8.2268999 -4.540208,0 -8.19061,3.6866999 -8.19061,8.2268999 0,4.5401 3.650402,8.1884 8.19061,8.1884 z" id="path3772-3"></path></g></svg>