<?xml version="1.0" encoding="UTF-8" standalone="no"?>
<svg xmlns:svg="http://www.w3.org/2000/svg" xmlns="http://www.w3.org/2000/svg" width="35.433071" height="35.433071" id="svg2" version="1.1"><g id="nestor-icon" transform="translate(0,-1016.9291)"><path style="fill-opacity:1;stroke:none" d="m 7.5046301,1048.8282 -3.9722713,-3.9705 6.6438722,-6.6791 c -1.0579048,-1.7588 -1.6873194,-3.8062 -1.6873194,-6.0097 0,-6.4685 5.2395484,-11.7059 11.7058964,-11.7059 6.466385,0 11.705921,5.2374 11.705921,11.7059 0,6.4648 -5.239536,11.7058 -11.705921,11.7058 -2.203352,0 -4.251392,-0.6315 -6.011118,-1.6872 l -6.6790599,6.6407 z m 12.6901779,-8.4709 c 4.540208,0 8.225784,-3.6483 8.225784,-8.1884 0,-4.5402 -3.685576,-8.2269 -8.225784,-8.2269 -4.540208,0 -8.19061,3.6867 -8.19061,8.2269 0,4.5401 3.650402,8.1884 8.19061,8.1884 z" id="path3772"></path></g></svg>