<?xml version="1.0" encoding="UTF-8" standalone="no"?>
<svg xmlns:svg="http://www.w3.org/2000/svg" xmlns="http://www.w3.org/2000/svg" width="35.433071" height="35.433071" id="svg2" version="1.1"><g id="icon"><path style="fill-opacity:1;stroke:none" d="m 11.579196,4.8953928 0.49185,3.5002686 C 11.39108,8.8083831 10.755396,9.2836707 10.191493,9.8232319 L 6.9209133,8.4375086 4.3096048,12.960425 7.1152402,15.107935 C 6.9260168,15.87401 6.844311,16.675043 6.8266708,17.479188 l -3.2772474,1.32418 1.3540577,5.053411 3.5002686,-0.49185 c 0.4127214,0.679966 0.8880093,1.315655 1.4275705,1.879553 l -1.3639627,3.232888 4.5229175,2.611311 2.117785,-2.797672 c 0.766437,0.189404 1.574662,0.300646 2.379216,0.318298 l 1.316217,3.247517 5.053411,-1.354056 -0.483887,-3.470544 c 0.680075,-0.412787 1.307613,-0.917624 1.87159,-1.457295 l 3.232888,1.363964 2.603342,-4.552643 -2.789703,-2.08806 c 0.185379,-0.75825 0.308814,-1.554133 0.326261,-2.349491 l 3.247517,-1.316212 -1.354056,-5.053411 -3.470544,0.483882 C 26.622755,11.375021 26.122299,10.730697 25.575054,10.161643 L 26.939013,6.9287552 22.416095,4.3174467 20.298315,7.115117 C 19.540179,6.9297942 18.752016,6.8360272 17.956787,6.8185825 l -1.32418,-3.2772474 -5.053411,1.3540577 z m 4.565758,6.9328142 c 3.257584,-0.872866 6.589947,1.051074 7.462814,4.308659 0.872866,3.257584 -1.051074,6.589947 -4.308659,7.462814 -3.257584,0.872866 -6.589947,-1.051074 -7.462813,-4.308659 -0.872867,-3.257584 1.051073,-6.589947 4.308658,-7.462814 z" id="path3899-4"></path></g></svg>