<?xml version="1.0" encoding="UTF-8" standalone="no"?>
<!-- Created with Inkscape (http://www.inkscape.org/) -->

<svg
   xmlns:dc="http://purl.org/dc/elements/1.1/"
   xmlns:cc="http://creativecommons.org/ns#"
   xmlns:rdf="http://www.w3.org/1999/02/22-rdf-syntax-ns#"
   xmlns:svg="http://www.w3.org/2000/svg"
   xmlns="http://www.w3.org/2000/svg"
   xmlns:sodipodi="http://sodipodi.sourceforge.net/DTD/sodipodi-0.dtd"
   xmlns:inkscape="http://www.inkscape.org/namespaces/inkscape"
   width="15"
   height="15"
   id="svg8013"
   version="1.1"
   inkscape:version="0.47 r22583"
   sodipodi:docname="eye_black.svg">
  <defs
     id="defs8015">
    <inkscape:perspective
       sodipodi:type="inkscape:persp3d"
       inkscape:vp_x="0 : 526.18109 : 1"
       inkscape:vp_y="0 : 1000 : 0"
       inkscape:vp_z="744.09448 : 526.18109 : 1"
       inkscape:persp3d-origin="372.04724 : 350.78739 : 1"
       id="perspective8021" />
    <inkscape:perspective
       id="perspective8006"
       inkscape:persp3d-origin="0.5 : 0.33333333 : 1"
       inkscape:vp_z="1 : 0.5 : 1"
       inkscape:vp_y="0 : 1000 : 0"
       inkscape:vp_x="0 : 0.5 : 1"
       sodipodi:type="inkscape:persp3d" />
  </defs>
  <sodipodi:namedview
     id="base"
     pagecolor="#ffffff"
     bordercolor="#666666"
     borderopacity="1.0"
     inkscape:pageopacity="0.0"
     inkscape:pageshadow="2"
     inkscape:zoom="31.678384"
     inkscape:cx="-6.9169951"
     inkscape:cy="6.4709097"
     inkscape:document-units="px"
     inkscape:current-layer="layer1"
     showgrid="false"
     inkscape:window-width="1918"
     inkscape:window-height="1175"
     inkscape:window-x="0"
     inkscape:window-y="1"
     inkscape:window-maximized="1" />
  <metadata
     id="metadata8018">
    <rdf:RDF>
      <cc:Work
         rdf:about="">
        <dc:format>image/svg+xml</dc:format>
        <dc:type
           rdf:resource="http://purl.org/dc/dcmitype/StillImage" />
        <dc:title />
      </cc:Work>
    </rdf:RDF>
  </metadata>
  <g
     inkscape:label="Calque 1"
     inkscape:groupmode="layer"
     id="layer1"
     transform="translate(-378.51427,-398.22855)">
    <circle
       transform="translate(-494.92073,312.72855)"
       cx="880.935"
       cy="93"
       r="6.8639998"
       id="circle387"
       sodipodi:cx="880.935"
       sodipodi:cy="93"
       sodipodi:rx="6.8639998"
       sodipodi:ry="6.8639998"
       style="fill:#000000;fill-opacity:1;stroke:#000000;stroke-opacity:1"
       d="m 887.799,93 c 0,3.790882 -3.07312,6.864 -6.864,6.864 -3.79088,0 -6.864,-3.073118 -6.864,-6.864 0,-3.790882 3.07312,-6.864 6.864,-6.864 3.79088,0 6.864,3.073118 6.864,6.864 z" />
    <circle
       transform="translate(-494.92073,312.72855)"
       cx="880.935"
       cy="93"
       r="1.83"
       id="circle389"
       sodipodi:cx="880.935"
       sodipodi:cy="93"
       sodipodi:rx="1.83"
       sodipodi:ry="1.83"
       d="m 882.765,93 c 0,1.010681 -0.81932,1.83 -1.83,1.83 -1.01068,0 -1.83,-0.819319 -1.83,-1.83 0,-1.010681 0.81932,-1.83 1.83,-1.83 1.01068,0 1.83,0.819319 1.83,1.83 z"
       style="fill:#ffffff;fill-opacity:1;stroke:none" />
    <path
       d="m 390.55928,405.72855 c 0,0 -2.035,2.144 -4.546,2.144 -2.511,0 -4.545,-2.144 -4.545,-2.144 0,0 2.035,-2.144 4.546,-2.144 2.511,0 4.545,2.144 4.545,2.144 z"
       id="path391"
       style="fill:none;stroke:#ffffff;stroke-opacity:1" />
  </g>
</svg>
