<?xml version="1.0" encoding="UTF-8" standalone="no"?>
<!-- Created with Inkscape (http://www.inkscape.org/) -->

<svg
   xmlns:dc="http://purl.org/dc/elements/1.1/"
   xmlns:cc="http://creativecommons.org/ns#"
   xmlns:rdf="http://www.w3.org/1999/02/22-rdf-syntax-ns#"
   xmlns:svg="http://www.w3.org/2000/svg"
   xmlns="http://www.w3.org/2000/svg"
   xmlns:sodipodi="http://sodipodi.sourceforge.net/DTD/sodipodi-0.dtd"
   xmlns:inkscape="http://www.inkscape.org/namespaces/inkscape"
   width="15"
   height="15"
   id="svg6072"
   version="1.1"
   inkscape:version="0.47 r22583"
   sodipodi:docname="rew.svg">
  <defs
     id="defs6074">
    <inkscape:perspective
       sodipodi:type="inkscape:persp3d"
       inkscape:vp_x="0 : 526.18109 : 1"
       inkscape:vp_y="0 : 1000 : 0"
       inkscape:vp_z="744.09448 : 526.18109 : 1"
       inkscape:persp3d-origin="372.04724 : 350.78739 : 1"
       id="perspective6080" />
    <inkscape:perspective
       id="perspective6063"
       inkscape:persp3d-origin="0.5 : 0.33333333 : 1"
       inkscape:vp_z="1 : 0.5 : 1"
       inkscape:vp_y="0 : 1000 : 0"
       inkscape:vp_x="0 : 0.5 : 1"
       sodipodi:type="inkscape:persp3d" />
  </defs>
  <sodipodi:namedview
     id="base"
     pagecolor="#ffffff"
     bordercolor="#666666"
     borderopacity="1.0"
     inkscape:pageopacity="0.0"
     inkscape:pageshadow="2"
     inkscape:zoom="44.217977"
     inkscape:cx="0.72923488"
     inkscape:cy="6.0227042"
     inkscape:document-units="px"
     inkscape:current-layer="layer1"
     showgrid="false"
     inkscape:window-width="1918"
     inkscape:window-height="1175"
     inkscape:window-x="0"
     inkscape:window-y="1"
     inkscape:window-maximized="1" />
  <metadata
     id="metadata6077">
    <rdf:RDF>
      <cc:Work
         rdf:about="">
        <dc:format>image/svg+xml</dc:format>
        <dc:type
           rdf:resource="http://purl.org/dc/dcmitype/StillImage" />
        <dc:title />
      </cc:Work>
    </rdf:RDF>
  </metadata>
  <g
     inkscape:label="Calque 1"
     inkscape:groupmode="layer"
     id="layer1"
     transform="translate(-368.13595,-524.22771)">
    <g
       transform="matrix(1.0728522,0,0,1.0728487,221.44134,391.19955)"
       id="g1227">
      <path
         d="m 143.724,125.122 c 3.233,0 5.864,2.631 5.864,5.864 0,3.233 -2.631,5.864 -5.864,5.864 -3.233,0 -5.864,-2.631 -5.864,-5.864 0,-3.233 2.631,-5.864 5.864,-5.864 m 0,-1 c -3.791,0 -6.864,3.073 -6.864,6.864 0,3.791 3.073,6.864 6.864,6.864 3.791,0 6.864,-3.073 6.864,-6.864 0,-3.791 -3.073,-6.864 -6.864,-6.864 l 0,0 z"
         id="path1229" />
    </g>
    <polyline
       style="fill:#ffffff;stroke:#000000;stroke-linecap:round"
       id="polyline1233"
       points="146.983,128.716 144.142,130.986 146.983,133.256    "
       transform="matrix(1.0728522,0,0,1.0728487,221.44134,391.19955)" />
    <polyline
       style="fill:none;stroke:#000000;stroke-linecap:round"
       id="polyline1235"
       points="143.306,128.716 140.465,130.986 143.306,133.256    "
       transform="matrix(1.0728522,0,0,1.0728487,221.44134,391.19955)" />
  </g>
</svg>
