<?xml version="1.0" encoding="UTF-8" standalone="no"?>
<!-- Created with Inkscape (http://www.inkscape.org/) -->

<svg
   xmlns:dc="http://purl.org/dc/elements/1.1/"
   xmlns:cc="http://creativecommons.org/ns#"
   xmlns:rdf="http://www.w3.org/1999/02/22-rdf-syntax-ns#"
   xmlns:svg="http://www.w3.org/2000/svg"
   xmlns="http://www.w3.org/2000/svg"
   xmlns:sodipodi="http://sodipodi.sourceforge.net/DTD/sodipodi-0.dtd"
   xmlns:inkscape="http://www.inkscape.org/namespaces/inkscape"
   width="15"
   height="15"
   id="svg8013"
   version="1.1"
   inkscape:version="0.47 r22583"
   sodipodi:docname="eye.svg">
  <defs
     id="defs8015">
    <marker
       inkscape:stockid="TriangleOutS"
       orient="auto"
       refY="0.0"
       refX="0.0"
       id="TriangleOutS"
       style="overflow:visible">
      <path
         id="path3743"
         d="M 5.77,0.0 L -2.88,5.0 L -2.88,-5.0 L 5.77,0.0 z "
         style="fill-rule:evenodd;stroke:#000000;stroke-width:1.0pt;marker-start:none"
         transform="scale(0.2)" />
    </marker>
    <marker
       inkscape:stockid="Arrow1Mend"
       orient="auto"
       refY="0.0"
       refX="0.0"
       id="Arrow1Mend"
       style="overflow:visible;">
      <path
         id="path3603"
         d="M 0.0,0.0 L 5.0,-5.0 L -12.5,0.0 L 5.0,5.0 L 0.0,0.0 z "
         style="fill-rule:evenodd;stroke:#000000;stroke-width:1.0pt;marker-start:none;"
         transform="scale(0.4) rotate(180) translate(10,0)" />
    </marker>
    <marker
       inkscape:stockid="Arrow1Mstart"
       orient="auto"
       refY="0.0"
       refX="0.0"
       id="Arrow1Mstart"
       style="overflow:visible">
      <path
         id="path3600"
         d="M 0.0,0.0 L 5.0,-5.0 L -12.5,0.0 L 5.0,5.0 L 0.0,0.0 z "
         style="fill-rule:evenodd;stroke:#000000;stroke-width:1.0pt;marker-start:none"
         transform="scale(0.4) translate(10,0)" />
    </marker>
    <marker
       inkscape:stockid="TriangleOutL"
       orient="auto"
       refY="0.0"
       refX="0.0"
       id="TriangleOutL"
       style="overflow:visible">
      <path
         id="path3737"
         d="M 5.77,0.0 L -2.88,5.0 L -2.88,-5.0 L 5.77,0.0 z "
         style="fill-rule:evenodd;stroke:#000000;stroke-width:1.0pt;marker-start:none"
         transform="scale(0.8)" />
    </marker>
    <inkscape:perspective
       sodipodi:type="inkscape:persp3d"
       inkscape:vp_x="0 : 526.18109 : 1"
       inkscape:vp_y="0 : 1000 : 0"
       inkscape:vp_z="744.09448 : 526.18109 : 1"
       inkscape:persp3d-origin="372.04724 : 350.78739 : 1"
       id="perspective8021" />
    <inkscape:perspective
       id="perspective8006"
       inkscape:persp3d-origin="0.5 : 0.33333333 : 1"
       inkscape:vp_z="1 : 0.5 : 1"
       inkscape:vp_y="0 : 1000 : 0"
       inkscape:vp_x="0 : 0.5 : 1"
       sodipodi:type="inkscape:persp3d" />
  </defs>
  <sodipodi:namedview
     id="base"
     pagecolor="#ffffff"
     bordercolor="#666666"
     borderopacity="1.0"
     inkscape:pageopacity="0.0"
     inkscape:pageshadow="2"
     inkscape:zoom="22.4"
     inkscape:cx="5.9938719"
     inkscape:cy="17.787728"
     inkscape:document-units="cm"
     inkscape:current-layer="layer1"
     showgrid="false"
     inkscape:window-width="1918"
     inkscape:window-height="1175"
     inkscape:window-x="0"
     inkscape:window-y="1"
     inkscape:window-maximized="1"
     units="px" />
  <metadata
     id="metadata8018">
    <rdf:RDF>
      <cc:Work
         rdf:about="">
        <dc:format>image/svg+xml</dc:format>
        <dc:type
           rdf:resource="http://purl.org/dc/dcmitype/StillImage" />
        <dc:title></dc:title>
      </cc:Work>
    </rdf:RDF>
  </metadata>
  <g
     inkscape:label="Calque 1"
     inkscape:groupmode="layer"
     id="layer1"
     transform="translate(-378.51427,-398.22855)">
    <circle
       transform="translate(-494.92073,312.72855)"
       cx="880.935"
       cy="93"
       r="6.8639998"
       id="circle387"
       sodipodi:cx="880.935"
       sodipodi:cy="93"
       sodipodi:rx="6.8639998"
       sodipodi:ry="6.8639998"
       style="fill:none;stroke:#000000"
       d="m 887.799,93 c 0,3.790882 -3.07312,6.864 -6.864,6.864 -3.79088,0 -6.864,-3.073118 -6.864,-6.864 0,-3.790882 3.07312,-6.864 6.864,-6.864 3.79088,0 6.864,3.073118 6.864,6.864 z" />
    <g
       id="g4807"
       transform="matrix(0.70725782,0.70695571,-0.70695571,0.70725782,399.83478,-154.12113)">
      <path
         id="path4805"
         d="m 384.50292,409.3062 c -0.46453,-0.19648 -0.88286,-0.48079 -1.23418,-0.83211 -0.35133,-0.35132 -0.63563,-0.76966 -0.83211,-1.23419 -0.19648,-0.46452 -0.30513,-0.97525 -0.30513,-1.51135 0,-0.5361 0.10865,-1.04682 0.30513,-1.51135 0.19648,-0.46453 0.48078,-0.88286 0.83211,-1.23418 0.35132,-0.35132 0.76965,-0.63563 1.23418,-0.83211"
         style="fill:#ffffff;fill-opacity:1;stroke:#000000;stroke-width:0.99212599;stroke-miterlimit:4;stroke-opacity:1;stroke-dasharray:none;marker-end:url(#TriangleOutS)" />
      <path
         id="path2816"
         d="m 387.52562,402.15091 c 0.46453,0.19648 0.88287,0.48079 1.23419,0.83211 0.35132,0.35132 0.63563,0.76965 0.83211,1.23418 0.19648,0.46453 0.30513,0.97525 0.30513,1.51135 0,0.5361 -0.10865,1.04683 -0.30513,1.51135 -0.19648,0.46453 -0.48079,0.88287 -0.83211,1.23419 -0.35132,0.35132 -0.76966,0.63563 -1.23419,0.83211"
         style="fill:#ffffff;fill-opacity:1;stroke:#000000;stroke-width:0.99212599;stroke-miterlimit:4;stroke-opacity:1;stroke-dasharray:none;marker-end:url(#TriangleOutS)" />
    </g>
  </g>
</svg>
