<?xml version="1.0" encoding="UTF-8" standalone="no"?>
<svg xmlns:svg="http://www.w3.org/2000/svg" xmlns="http://www.w3.org/2000/svg" width="35.433071" height="35.433071" id="svg2" version="1.1"><g id="layer1" transform="translate(0,-1016.9291)"><g id="g414" transform="matrix(0.62261604,0,0,-0.62261604,3.2015136,1021.8955)"><path style="fill-opacity:1;fill-rule:evenodd;stroke:none" d="M 4.4375 7.75 L 4.4375 16.875 C 5.2010612 17.030038 5.9441835 17.256058 6.65625 17.53125 L 6.65625 9.96875 L 28.78125 9.96875 L 28.78125 25.46875 L 14.5625 25.46875 C 14.837692 26.180817 15.063712 26.923939 15.21875 27.6875 L 31 27.6875 L 31 7.75 L 4.4375 7.75 z M 8.3125 11.625 L 8.3125 18.3125 C 10.629762 19.582703 12.542297 21.495238 13.8125 23.8125 L 27.125 23.8125 L 27.125 11.625 L 8.3125 11.625 z M 2.75 18.3125 L 2.75 20.5625 C 7.3690191 21.073571 11.051429 24.72473 11.5625 29.34375 L 13.78125 29.34375 C 13.254675 23.501039 8.5938181 18.839629 2.75 18.3125 z M 2.75 22.21875 L 2.75 24.46875 C 5.2250678 24.923897 7.2005497 26.868682 7.65625 29.34375 L 9.875 29.34375 C 9.3805401 25.644437 6.4493128 22.71321 2.75 22.21875 z M 2.75 26.15625 L 2.75 29.34375 L 5.9375 29.34375 C 5.5371703 27.788942 4.3048077 26.557687 2.75 26.15625 z " transform="matrix(1.6061263,0,0,-1.6061263,-5.1420352,7.9766657)" id="path416"></path></g><g id="g418" transform="matrix(0.62261604,0,0,-0.62261604,7.5598256,1026.2538)"></g><g id="g422" transform="matrix(0.62261604,0,0,-0.62261604,1.3336656,1042.6048)"></g><g id="g426" transform="matrix(0.62261604,0,0,-0.62261604,1.3336656,1038.1759)"></g><g id="g430" transform="matrix(0.62261604,0,0,-0.62261604,1.3336656,1033.7842)"></g></g></svg>