<?xml version="1.0" encoding="UTF-8" standalone="no"?>
<svg xmlns:svg="http://www.w3.org/2000/svg" xmlns="http://www.w3.org/2000/svg" width="35.433071" height="35.433071" id="svg2" version="1.1"><g id="layer1" transform="translate(0,-1016.9291)"><g id="g414" transform="matrix(0.62261604,0,0,-0.62261604,3.2015136,1021.8955)"><path style="fill-opacity:1;fill-rule:evenodd;stroke:none" d="m 4.4375,7.75 0,9.125 c 0.7635612,0.155038 1.5066835,0.381058 2.21875,0.65625 l 0,-7.5625 22.125,0 0,15.5 -14.21875,0 c 0.275192,0.712067 0.501212,1.455189 0.65625,2.21875 L 31,27.6875 31,7.75 z M 2.75,18.3125 l 0,2.25 c 4.6190191,0.511071 8.301429,4.16223 8.8125,8.78125 l 2.21875,0 C 13.254675,23.501039 8.5938181,18.839629 2.75,18.3125 z m 0,3.90625 0,2.25 c 2.4750678,0.455147 4.4505497,2.399932 4.90625,4.875 l 2.21875,0 C 9.3805401,25.644437 6.4493128,22.71321 2.75,22.21875 z m 0,3.9375 0,3.1875 3.1875,0 C 5.5371703,27.788942 4.3048077,26.557687 2.75,26.15625 z" transform="matrix(1.6061263,0,0,-1.6061263,-5.1420352,7.9766657)" id="path416"></path></g><g id="g418" transform="matrix(0.62261604,0,0,-0.62261604,7.5598256,1026.2538)"></g><g id="g422" transform="matrix(0.62261604,0,0,-0.62261604,1.3336656,1042.6048)"></g><g id="g426" transform="matrix(0.62261604,0,0,-0.62261604,1.3336656,1038.1759)"></g><g id="g430" transform="matrix(0.62261604,0,0,-0.62261604,1.3336656,1033.7842)"></g></g></svg>