<?xml version="1.0" encoding="UTF-8" standalone="no"?>
<!-- Created with Inkscape (http://www.inkscape.org/) -->

<svg
   xmlns:dc="http://purl.org/dc/elements/1.1/"
   xmlns:cc="http://creativecommons.org/ns#"
   xmlns:rdf="http://www.w3.org/1999/02/22-rdf-syntax-ns#"
   xmlns:svg="http://www.w3.org/2000/svg"
   xmlns="http://www.w3.org/2000/svg"
   xmlns:sodipodi="http://sodipodi.sourceforge.net/DTD/sodipodi-0.dtd"
   xmlns:inkscape="http://www.inkscape.org/namespaces/inkscape"
   width="35.433071"
   height="35.433071"
   id="svg2"
   version="1.1"
   inkscape:version="0.48.4 r9939"
   sodipodi:docname="downloads.svg">
  <defs
     id="defs4">
    <linearGradient
       id="linearGradient5256">
      <stop
         style="stop-color:#acacac;stop-opacity:1;"
         offset="0"
         id="stop5258" />
      <stop
         style="stop-color:#acacac;stop-opacity:0.99342108;"
         offset="1"
         id="stop5260" />
    </linearGradient>
    <linearGradient
       id="linearGradient3798">
      <stop
         style="stop-color:#acacac;stop-opacity:1;"
         offset="0"
         id="stop3800" />
      <stop
         style="stop-color:#acacac;stop-opacity:0.68421054;"
         offset="1"
         id="stop3802" />
    </linearGradient>
  </defs>
  <sodipodi:namedview
     id="base"
     pagecolor="#ffffff"
     bordercolor="#666666"
     borderopacity="1.0"
     inkscape:pageopacity="0.0"
     inkscape:pageshadow="2"
     inkscape:zoom="15.753902"
     inkscape:cx="38.808086"
     inkscape:cy="17.11829"
     inkscape:document-units="px"
     inkscape:current-layer="layer1"
     showgrid="true"
     units="cm"
     inkscape:window-width="1920"
     inkscape:window-height="1017"
     inkscape:window-x="0"
     inkscape:window-y="30"
     inkscape:window-maximized="1">
    <inkscape:grid
       type="xygrid"
       id="grid2985"
       empspacing="8"
       visible="true"
       enabled="true"
       snapvisiblegridlinesonly="true"
       units="cm"
       spacingx="0.0125cm"
       spacingy="0.0125cm"
       originx="0cm"
       originy="0cm" />
  </sodipodi:namedview>
  <metadata
     id="metadata7">
    <rdf:RDF>
      <cc:Work
         rdf:about="">
        <dc:format>image/svg+xml</dc:format>
        <dc:type
           rdf:resource="http://purl.org/dc/dcmitype/StillImage" />
        <dc:title></dc:title>
      </cc:Work>
    </rdf:RDF>
  </metadata>
  <g
     inkscape:label="Calque 1"
     inkscape:groupmode="layer"
     id="layer1"
     transform="translate(0,-1016.9291)">
    <path
       style="fill:#acacac;fill-opacity:1;fill-rule:evenodd;stroke:none"
       d="m 4,5.3125 c -0.2453637,0 -0.46875,0.1921 -0.46875,0.4375 l 0,2.65625 c 0,0.2453 0.2233863,0.4375 0.46875,0.4375 l 27.4375,0 c 0.245364,0 0.4375,-0.1922 0.4375,-0.4375 l 0,-2.65625 c 0,-0.2454 -0.192136,-0.4375 -0.4375,-0.4375 z m 0,10.625 C 3.7546488,15.93738 3.53125,16.1296 3.53125,16.375 l 0,2.65625 C 3.53125,19.27665 3.7546488,19.5 4,19.5 l 11.501969,0.0074 0,-3.5625 z m 0,10.625 c -0.2453723,-2.2e-4 -0.46875,0.22335 -0.46875,0.46875 l 0,2.65625 c 0,0.2454 0.2233776,0.4375 0.46875,0.4375 l 13.766978,0.0123 -3.59375,-3.5625 z"
       transform="translate(0,1016.9291)"
       id="rect3010"
       inkscape:connector-curvature="0"
       sodipodi:nodetypes="ssssssssscsssccccsssccc" />
    <path
       style="fill:#acacac;fill-opacity:1;stroke:none"
       d="m 22.588583,12.401575 4.429134,0 0,10.629921 4.872047,0 -7.086614,7.086615 -7.086615,-7.086615 4.872048,0 z"
       id="path3874"
       inkscape:connector-curvature="0"
       transform="translate(0,1016.9291)"
       sodipodi:nodetypes="cccccccc" />
  </g>
</svg>
