<?xml version="1.0" encoding="UTF-8" standalone="no"?>
<!-- Created with Inkscape (http://www.inkscape.org/) -->

<svg
   xmlns:dc="http://purl.org/dc/elements/1.1/"
   xmlns:cc="http://creativecommons.org/ns#"
   xmlns:rdf="http://www.w3.org/1999/02/22-rdf-syntax-ns#"
   xmlns:svg="http://www.w3.org/2000/svg"
   xmlns="http://www.w3.org/2000/svg"
   xmlns:sodipodi="http://sodipodi.sourceforge.net/DTD/sodipodi-0.dtd"
   xmlns:inkscape="http://www.inkscape.org/namespaces/inkscape"
   width="35.433071"
   height="35.433071"
   id="svg2"
   version="1.1"
   inkscape:version="0.48.4 r9939"
   sodipodi:docname="image.svg">
  <defs
     id="defs4">
    <linearGradient
       id="linearGradient5256">
      <stop
         style="stop-color:#acacac;stop-opacity:1;"
         offset="0"
         id="stop5258" />
      <stop
         style="stop-color:#acacac;stop-opacity:0.99342108;"
         offset="1"
         id="stop5260" />
    </linearGradient>
    <linearGradient
       id="linearGradient3798">
      <stop
         style="stop-color:#acacac;stop-opacity:1;"
         offset="0"
         id="stop3800" />
      <stop
         style="stop-color:#acacac;stop-opacity:0.68421054;"
         offset="1"
         id="stop3802" />
    </linearGradient>
  </defs>
  <sodipodi:namedview
     id="base"
     pagecolor="#ffffff"
     bordercolor="#666666"
     borderopacity="1.0"
     inkscape:pageopacity="0.0"
     inkscape:pageshadow="2"
     inkscape:zoom="11.139691"
     inkscape:cx="-19.074211"
     inkscape:cy="20.440259"
     inkscape:document-units="px"
     inkscape:current-layer="layer1"
     showgrid="true"
     units="cm"
     inkscape:window-width="1920"
     inkscape:window-height="1021"
     inkscape:window-x="0"
     inkscape:window-y="27"
     inkscape:window-maximized="1">
    <inkscape:grid
       type="xygrid"
       id="grid2985"
       empspacing="5"
       visible="true"
       enabled="true"
       snapvisiblegridlinesonly="true"
       units="cm"
       spacingx="0.1cm"
       spacingy="0.0125cm"
       originx="0cm"
       originy="0cm" />
  </sodipodi:namedview>
  <metadata
     id="metadata7">
    <rdf:RDF>
      <cc:Work
         rdf:about="">
        <dc:format>image/svg+xml</dc:format>
        <dc:type
           rdf:resource="http://purl.org/dc/dcmitype/StillImage" />
        <dc:title></dc:title>
      </cc:Work>
    </rdf:RDF>
  </metadata>
  <g
     inkscape:label="Calque 1"
     inkscape:groupmode="layer"
     id="layer1"
     transform="translate(0,-1016.9291)">
    <path
       style="fill:#acacac;fill-opacity:1;fill-rule:evenodd;stroke:none"
       d="m 6.3727856,1020.7862 c -0.152111,0 -0.28125,0.1292 -0.28125,0.2813 l 0,14.8437 c 0,0.1521 0.129139,0.2813 0.28125,0.2813 l 12.5937504,0 0.53125,7.4062 3.0625,-2.7812 3.46875,7.6875 2.46875,-1.1875 -3.46875,-7.6875 4.3125,-0.5313 -5.6875,-5.25 0,-12.7812 c 0,-0.1521 -0.09789,-0.2813 -0.25,-0.2813 l -17.0312504,0 z m 2.1875,2.1875 12.6562504,0 c 0.152116,0 0.249973,0.1603 0.25,0.3125 l 0,8.5313 -3.03125,-2.7813 0.21875,3.125 c -4.516616,-1.4231 -6.644734,-5.5612 -10.3437504,-0.9375 l 0,-7.9375 c 8.46e-5,-0.1522 0.097882,-0.3125 0.25,-0.3125 z m 9.7187504,0.8438 c -1.213172,0 -2.1875,1.0056 -2.1875,2.2187 0,1.2131 0.974328,2.1875 2.1875,2.1875 1.213172,0 2.21875,-0.9744 2.21875,-2.1875 l -0.0625,-0.3437 c -0.164109,-1.0724 -1.07139,-1.875 -2.15625,-1.875 z"
       id="rect3010"
       inkscape:connector-curvature="0" />
  </g>
</svg>
