<?xml version="1.0" encoding="UTF-8" standalone="no"?>
<svg xmlns:svg="http://www.w3.org/2000/svg" xmlns="http://www.w3.org/2000/svg" width="35.433071" height="35.433071" id="svg2" version="1.1"><g id="layer1" transform="translate(0,-1016.9291)"><path style="fill-opacity:1;fill-rule:evenodd;stroke:none" d="m 6.3727856,1020.7862 c -0.152111,0 -0.28125,0.1292 -0.28125,0.2813 l 0,14.8437 c 0,0.1521 0.129139,0.2813 0.28125,0.2813 l 12.5937504,0 0.53125,7.4062 3.0625,-2.7812 3.46875,7.6875 2.46875,-1.1875 -3.46875,-7.6875 4.3125,-0.5313 -5.6875,-5.25 0,-12.7812 c 0,-0.1521 -0.09789,-0.2813 -0.25,-0.2813 l -17.0312504,0 z m 2.1875,2.1875 12.6562504,0 c 0.152116,0 0.249973,0.1603 0.25,0.3125 l 0,8.5313 -3.03125,-2.7813 0.21875,3.125 c -4.516616,-1.4231 -6.644734,-5.5612 -10.3437504,-0.9375 l 0,-7.9375 c 8.46e-5,-0.1522 0.097882,-0.3125 0.25,-0.3125 z m 9.7187504,0.8438 c -1.213172,0 -2.1875,1.0056 -2.1875,2.2187 0,1.2131 0.974328,2.1875 2.1875,2.1875 1.213172,0 2.21875,-0.9744 2.21875,-2.1875 l -0.0625,-0.3437 c -0.164109,-1.0724 -1.07139,-1.875 -2.15625,-1.875 z" id="rect3010"></path></g></svg>