<?xml version="1.0" encoding="UTF-8" standalone="no"?>
<!-- Created with Inkscape (http://www.inkscape.org/) -->

<svg
   xmlns:dc="http://purl.org/dc/elements/1.1/"
   xmlns:cc="http://creativecommons.org/ns#"
   xmlns:rdf="http://www.w3.org/1999/02/22-rdf-syntax-ns#"
   xmlns:svg="http://www.w3.org/2000/svg"
   xmlns="http://www.w3.org/2000/svg"
   xmlns:sodipodi="http://sodipodi.sourceforge.net/DTD/sodipodi-0.dtd"
   xmlns:inkscape="http://www.inkscape.org/namespaces/inkscape"
   width="35.433071"
   height="35.433071"
   id="svg2"
   version="1.1"
   inkscape:version="0.48.4 r9939"
   sodipodi:docname="list.svg">
  <defs
     id="defs4">
    <linearGradient
       id="linearGradient5256">
      <stop
         style="stop-color:#acacac;stop-opacity:1;"
         offset="0"
         id="stop5258" />
      <stop
         style="stop-color:#acacac;stop-opacity:0.99342108;"
         offset="1"
         id="stop5260" />
    </linearGradient>
    <linearGradient
       id="linearGradient3798">
      <stop
         style="stop-color:#acacac;stop-opacity:1;"
         offset="0"
         id="stop3800" />
      <stop
         style="stop-color:#acacac;stop-opacity:0.68421054;"
         offset="1"
         id="stop3802" />
    </linearGradient>
  </defs>
  <sodipodi:namedview
     id="base"
     pagecolor="#ffffff"
     bordercolor="#666666"
     borderopacity="1.0"
     inkscape:pageopacity="0.0"
     inkscape:pageshadow="2"
     inkscape:zoom="11.139691"
     inkscape:cx="72.533462"
     inkscape:cy="4.534879"
     inkscape:document-units="px"
     inkscape:current-layer="layer1"
     showgrid="true"
     units="cm"
     inkscape:window-width="1920"
     inkscape:window-height="1021"
     inkscape:window-x="0"
     inkscape:window-y="27"
     inkscape:window-maximized="1">
    <inkscape:grid
       type="xygrid"
       id="grid2985"
       empspacing="5"
       visible="true"
       enabled="true"
       snapvisiblegridlinesonly="true"
       units="cm"
       spacingx="0.1cm"
       spacingy="0.0125cm"
       originx="0cm"
       originy="0cm" />
  </sodipodi:namedview>
  <metadata
     id="metadata7">
    <rdf:RDF>
      <cc:Work
         rdf:about="">
        <dc:format>image/svg+xml</dc:format>
        <dc:type
           rdf:resource="http://purl.org/dc/dcmitype/StillImage" />
        <dc:title></dc:title>
      </cc:Work>
    </rdf:RDF>
  </metadata>
  <g
     inkscape:label="Calque 1"
     inkscape:groupmode="layer"
     id="layer1"
     transform="translate(0,-1016.9291)">
    <path
       style="fill:#acacac;fill-opacity:1;fill-rule:evenodd;stroke:none"
       d="M 4 5.3125 C 3.7546363 5.3125 3.53125 5.5046 3.53125 5.75 L 3.53125 29.6875 C 3.53125 29.9329 3.7546363 30.125 4 30.125 L 31.4375 30.125 C 31.682864 30.125 31.875 29.9329 31.875 29.6875 L 31.875 5.75 C 31.875 5.5046 31.682864 5.3125 31.4375 5.3125 L 4 5.3125 z M 7.53125 8.84375 L 27.90625 8.84375 C 28.151622 8.84375 28.343706 9.0671 28.34375 9.3125 L 28.34375 24.375 C 17.713828 24.375 14.180364 13.29795 7.09375 22.15625 L 7.09375 9.3125 C 7.0938864 9.0671 7.2858747 8.84375 7.53125 8.84375 z M 23.1875 10.1875 C 21.230585 10.1875 19.65625 11.793086 19.65625 13.75 C 19.65625 15.706915 21.230585 17.28125 23.1875 17.28125 C 25.144414 17.28125 26.75 15.706915 26.75 13.75 L 26.6875 13.21875 C 26.422782 11.488948 24.93744 10.1875 23.1875 10.1875 z "
       transform="translate(0,1016.9291)"
       id="rect3010" />
  </g>
</svg>
