<?xml version="1.0" encoding="UTF-8" standalone="no"?>
<svg xmlns:svg="http://www.w3.org/2000/svg" xmlns="http://www.w3.org/2000/svg" width="35.433071" height="35.433071" id="svg2" version="1.1"><g id="layer1" transform="translate(0,-1016.9291)"><path style="fill-opacity:1;stroke:none" d="M 7.0625 14.1875 C 5.105586 14.1875 3.53125 15.76185 3.53125 17.71875 C 3.53125 19.67575 5.105586 21.25 7.0625 21.25 C 9.019414 21.25 10.59375 19.67575 10.59375 17.71875 C 10.59375 15.76185 9.019414 14.1875 7.0625 14.1875 z M 17.6875 14.1875 C 15.730586 14.1875 14.15625 15.76185 14.15625 17.71875 C 14.15625 19.67575 15.730586 21.25 17.6875 21.25 C 19.644414 21.25 21.25 19.67575 21.25 17.71875 C 21.25 15.76185 19.644414 14.1875 17.6875 14.1875 z M 28.34375 14.1875 C 26.386835 14.1875 24.8125 15.761836 24.8125 17.71875 C 24.8125 19.675664 26.386835 21.25 28.34375 21.25 C 30.300664 21.25 31.875 19.675664 31.875 17.71875 C 31.875 15.761836 30.300664 14.1875 28.34375 14.1875 z " transform="translate(0,1016.9291)" id="path3035"></path></g></svg>