<?xml version="1.0" encoding="UTF-8" standalone="no"?>
<!-- Created with Inkscape (http://www.inkscape.org/) -->

<svg
   xmlns:dc="http://purl.org/dc/elements/1.1/"
   xmlns:cc="http://creativecommons.org/ns#"
   xmlns:rdf="http://www.w3.org/1999/02/22-rdf-syntax-ns#"
   xmlns:svg="http://www.w3.org/2000/svg"
   xmlns="http://www.w3.org/2000/svg"
   xmlns:sodipodi="http://sodipodi.sourceforge.net/DTD/sodipodi-0.dtd"
   xmlns:inkscape="http://www.inkscape.org/namespaces/inkscape"
   version="1.1"
   viewBox="0 0 50 50"
   id="svg2"
   inkscape:version="0.48.4 r9939"
   width="100%"
   height="100%"
   sodipodi:docname="nestor.svg">
  <metadata
     id="metadata17">
    <rdf:RDF>
      <cc:Work
         rdf:about="">
        <dc:format>image/svg+xml</dc:format>
        <dc:type
           rdf:resource="http://purl.org/dc/dcmitype/StillImage" />
        <dc:title></dc:title>
      </cc:Work>
    </rdf:RDF>
  </metadata>
  <defs
     id="defs15" />
  <sodipodi:namedview
     pagecolor="#ffffff"
     bordercolor="#666666"
     borderopacity="1"
     objecttolerance="10"
     gridtolerance="10"
     guidetolerance="10"
     inkscape:pageopacity="0"
     inkscape:pageshadow="2"
     inkscape:window-width="1920"
     inkscape:window-height="1015"
     id="namedview13"
     showgrid="false"
     inkscape:zoom="13.350176"
     inkscape:cx="-3.7855324"
     inkscape:cy="24.953183"
     inkscape:window-x="0"
     inkscape:window-y="28"
     inkscape:window-maximized="1"
     inkscape:current-layer="svg2" />
  <path
     d="M -0.00753191,33.314536 8.7380488,31.900239 11.448284,48.659509 2.7027035,50.073806 z"
     id="rect1"
     inkscape:connector-curvature="0" />
  <path
     style="fill:#ffd200"
     d="m 8.1366478,30.133114 8.5714822,-2.239441 5.215639,19.962911 -8.571482,2.239441 z"
     id="rect2"
     inkscape:connector-curvature="0" />
  <path
     d="m 15.348925,25.680712 7.721468,-4.345556 13.704712,24.351431 -7.721468,4.345556 z"
     id="rect3"
     inkscape:connector-curvature="0" />
  <path
     style="fill:#ffd200"
     d="M 39.786349,12.224365 47.850212,15.89309 38.296173,36.892884 30.23231,33.224159 z"
     id="rect4"
     inkscape:connector-curvature="0" />
  <path
     d="m 41.38251,30.424004 8.597538,2.14179 -4.397772,17.653467 -8.597538,-2.14179 z"
     id="rect5"
     inkscape:connector-curvature="0" />
  <path
     d="m 18.720063,16.519513 c 1.734966,2.726139 0.922499,6.352588 -1.815537,8.095124 L 6.1616067,31.451627 C 4.3345341,32.614408 1.9164416,32.081354 0.75833049,30.261621 -0.3998342,28.441804 0.14310635,26.028444 1.9701787,24.865661 c 1.825048,-1.161494 4.2422738,-0.632036 5.4004386,1.187782 0.6275383,0.986046 0.753818,2.143292 0.4510529,3.184206 L 9.7701426,27.997605 C 10.595315,27.47245 10.374452,25.299231 8.8027608,22.829641 l -0.52617,-0.826768 c -1.7362539,-2.728166 -0.9219081,-6.351662 1.8151982,-8.093606 2.739049,-1.743179 6.365459,-0.945862 8.101714,1.782303 l 0.526813,0.827781 z"
     id="path9"
     inkscape:connector-curvature="0" />
  <path
     d="m 26.442895,24.999677 c -2.938323,-1.350452 -4.219721,-4.835286 -2.86434,-7.78433 1.35538,-2.949045 4.834928,-4.246959 7.77325,-2.896507 l 0.890547,0.409296 c 2.659828,1.222456 4.842821,1.146715 5.251302,0.25794 l 0.964001,-2.097477 c -0.988605,0.440546 -2.153862,0.472839 -3.215958,-0.0153 -1.959912,-0.900775 -2.812116,-3.2239312 -1.908711,-5.1895671 0.903908,-1.9667263 3.221406,-2.8317661 5.181318,-1.9309911 1.960002,0.9008168 2.815888,3.2243437 1.911981,5.1910702 l -5.317788,11.570475 c -1.355839,2.950044 -4.83774,4.244456 -7.773972,2.894964 l -0.891819,-0.40988 z"
     id="path11"
     inkscape:connector-curvature="0" />
</svg>
