<?xml version="1.0" encoding="UTF-8" standalone="no"?>
<svg xmlns:svg="http://www.w3.org/2000/svg" xmlns="http://www.w3.org/2000/svg" width="35.433071" height="35.433071" id="svg2" version="1.1"><g transform="translate(0,-1016.9291)" id="nestor-icon"><path style="fill-opacity:1;fill-rule:evenodd;stroke:none" d="m 7.0625,5.3125 4.03125,3.53125 20.34375,0 c 0.245364,0 0.4375,-0.1922 0.4375,-0.4375 l 0,-2.65625 c 0,-0.2454 -0.192136,-0.4375 -0.4375,-0.4375 z m 10.654035,10.613189 2.03125,1.78125 -2.03125,1.78125 L 31.4375,19.5 c 0.245352,2.11e-4 0.4375,-0.22335 0.4375,-0.46875 l 0,-2.65625 c 0,-0.2454 -0.192148,-0.4375 -0.4375,-0.4375 z M 11.125,26.5625 7.0625,30.125 l 24.375,0 c 0.245372,0 0.4375,-0.1921 0.4375,-0.4375 l 0,-2.65625 c 0,-0.2454 -0.192128,-0.46875 -0.4375,-0.46875 z" transform="translate(0,1016.9291)" id="rect3010"></path><path style="fill-opacity:1;stroke:none" d="m 3.5433071,8.858268 0,17.716535 10.6299209,-8.858267 z" id="path5393" transform="translate(0,1016.9291)"></path></g></svg>