<?xml version="1.0" encoding="UTF-8" standalone="no"?>
<svg xmlns:svg="http://www.w3.org/2000/svg" xmlns="http://www.w3.org/2000/svg" width="28.346457" height="29.409449" id="svg2" version="1.1"><g id="nestor-icon" transform="translate(0,-1022.9527)"><path style="fill-opacity:1;fill-rule:evenodd;stroke:none" d="m 0.5141319,1023.1035 c -0.24546922,0 -0.46897567,0.1921 -0.46897567,0.4375 l 0,2.6562 c 0,0.2454 0.22350645,0.4688 0.46897567,0.4688 l 23.8552291,0 3.908131,-3.4375 c -0.08009,-0.08 -0.189916,-0.125 -0.312651,-0.125 l -27.4507091,0 z" id="rect3014"></path><path style="fill-opacity:1;stroke:none" d="m 28.417323,1029.3236 0,12.4015 -7.090026,-6.2007 z" id="path3834-2"></path><path style="fill-opacity:1;fill-rule:evenodd;stroke:none" d="M 0.46897567,1033.7455 C 0.22348524,1033.7453 0,1033.9689 0,1034.2142 l 0,2.6563 c 0,0.2454 0.22348514,0.4375 0.46897567,0.4375 l 15.49564433,-0.01 -1.772506,-1.7717 1.772506,-1.7716 z" id="rect3012-9"></path><path style="fill-opacity:1;fill-rule:evenodd;stroke:none" d="m 0.51388178,1047.933 c -0.24546922,0 -0.46897567,-0.1921 -0.46897567,-0.4375 l 0,-2.6562 c 0,-0.2454 0.22350645,-0.4688 0.46897567,-0.4688 l 23.85522922,0 3.90813,3.4375 c -0.08009,0.08 -0.189915,0.125 -0.31265,0.125 l -27.45070922,0 z" id="rect3014-7"></path></g></svg>