<?xml version="1.0" encoding="UTF-8" standalone="no"?>
<svg xmlns:svg="http://www.w3.org/2000/svg" xmlns="http://www.w3.org/2000/svg" width="35.433071" height="35.433071" id="svg2" version="1.1"><g id="nestor-icon" transform="translate(0,-1016.9291)"><path style="fill-opacity:1;stroke:none" d="M 3.5433071,11.072835 10.629921,6.6437011 c 0,0 0,0 0,2.2145669 17.273622,0 19.488189,0 19.488189,8.858268 -2.214567,0 -1.771653,0 -4.429134,0 0,-4.429134 0,-4.429134 -15.059055,-4.429134 0,2.214567 0,2.214567 0,2.214567 z" id="path5414" transform="translate(0,1016.9291)"></path><path id="path5420" d="m 31.889764,1041.2893 -7.086614,4.4291 c 0,0 0,0 0,-2.2146 -17.2736221,0 -19.4881891,0 -19.4881891,-8.8582 2.214567,0 1.771653,0 4.429134,0 0,4.4291 0,4.4291 15.0590551,4.4291 0,-2.2146 0,-2.2146 0,-2.2146 z" style="fill-opacity:1;stroke:none"></path></g></svg>