<?xml version="1.0" encoding="UTF-8" standalone="no"?>
<svg xmlns:svg="http://www.w3.org/2000/svg" xmlns="http://www.w3.org/2000/svg" width="35.433071" height="35.433071" id="svg2" version="1.1"><g id="nestor-icon" transform="translate(0,-1016.9291)"><path style="fill-opacity:1;stroke:none" d="m 10.192667,1045.7008 -3.5312497,-3.5313 5.9062497,-5.9375 c -0.940465,-1.5644 -1.5,-3.385 -1.5,-5.3437 0,-5.7485 4.657814,-10.4063 10.40625,-10.4063 5.748437,0 10.40625,4.6578 10.40625,10.4063 0,5.7484 -4.657813,10.4062 -10.40625,10.4062 -1.958732,0 -3.779396,-0.5595 -5.34375,-1.5 l -5.9375,5.9063 z m 11.28125,-7.5313 c 4.036136,0 7.3125,-3.2451 7.3125,-7.2812 0,-4.0362 -3.276364,-7.3125 -7.3125,-7.3125 -4.036136,0 -7.28125,3.2763 -7.28125,7.3125 0,4.0361 3.245114,7.2812 7.28125,7.2812 z" id="path3772"></path></g></svg>