<?xml version="1.0" encoding="UTF-8" standalone="no"?>
<!-- Created with Inkscape (http://www.inkscape.org/) -->

<svg
   xmlns:dc="http://purl.org/dc/elements/1.1/"
   xmlns:cc="http://creativecommons.org/ns#"
   xmlns:rdf="http://www.w3.org/1999/02/22-rdf-syntax-ns#"
   xmlns:svg="http://www.w3.org/2000/svg"
   xmlns="http://www.w3.org/2000/svg"
   xmlns:sodipodi="http://sodipodi.sourceforge.net/DTD/sodipodi-0.dtd"
   xmlns:inkscape="http://www.inkscape.org/namespaces/inkscape"
   width="35.433071"
   height="35.433071"
   id="svg2"
   version="1.1"
   inkscape:version="0.48.4 r9939"
   sodipodi:docname="cast-on.svg">
  <defs
     id="defs4">
    <linearGradient
       id="linearGradient5256">
      <stop
         style="stop-color:#acacac;stop-opacity:1;"
         offset="0"
         id="stop5258" />
      <stop
         style="stop-color:#acacac;stop-opacity:0.99342108;"
         offset="1"
         id="stop5260" />
    </linearGradient>
    <linearGradient
       id="linearGradient3798">
      <stop
         style="stop-color:#acacac;stop-opacity:1;"
         offset="0"
         id="stop3800" />
      <stop
         style="stop-color:#acacac;stop-opacity:0.68421054;"
         offset="1"
         id="stop3802" />
    </linearGradient>
  </defs>
  <sodipodi:namedview
     id="base"
     pagecolor="#ffffff"
     bordercolor="#666666"
     borderopacity="1.0"
     inkscape:pageopacity="0.0"
     inkscape:pageshadow="2"
     inkscape:zoom="32"
     inkscape:cx="12.58771"
     inkscape:cy="15.438857"
     inkscape:document-units="px"
     inkscape:current-layer="layer1"
     showgrid="true"
     units="cm"
     inkscape:window-width="1920"
     inkscape:window-height="1015"
     inkscape:window-x="0"
     inkscape:window-y="28"
     inkscape:window-maximized="1">
    <inkscape:grid
       type="xygrid"
       id="grid2985"
       empspacing="5"
       visible="true"
       enabled="true"
       snapvisiblegridlinesonly="true"
       units="cm"
       spacingx="0.025cm"
       spacingy="0.025cm"
       originx="0cm"
       originy="0cm"
       dotted="false" />
  </sodipodi:namedview>
  <metadata
     id="metadata7">
    <rdf:RDF>
      <cc:Work
         rdf:about="">
        <dc:format>image/svg+xml</dc:format>
        <dc:type
           rdf:resource="http://purl.org/dc/dcmitype/StillImage" />
        <dc:title></dc:title>
      </cc:Work>
    </rdf:RDF>
  </metadata>
  <g
     inkscape:label="Calque 1"
     inkscape:groupmode="layer"
     id="layer1"
     transform="translate(0,-1016.9291)">
    <g
       id="g414"
       transform="matrix(0.62261604,0,0,-0.62261604,3.2015136,1021.8955)">
      <path
         style="fill:#acacac;fill-opacity:1;fill-rule:evenodd;stroke:none"
         d="m 4.4375,7.75 0,9.125 c 0.7635612,0.155038 1.5066835,0.381058 2.21875,0.65625 l 0,-7.5625 22.125,0 0,15.5 -14.21875,0 c 0.275192,0.712067 0.501212,1.455189 0.65625,2.21875 L 31,27.6875 31,7.75 z M 2.75,18.3125 l 0,2.25 c 4.6190191,0.511071 8.301429,4.16223 8.8125,8.78125 l 2.21875,0 C 13.254675,23.501039 8.5938181,18.839629 2.75,18.3125 z m 0,3.90625 0,2.25 c 2.4750678,0.455147 4.4505497,2.399932 4.90625,4.875 l 2.21875,0 C 9.3805401,25.644437 6.4493128,22.71321 2.75,22.21875 z m 0,3.9375 0,3.1875 3.1875,0 C 5.5371703,27.788942 4.3048077,26.557687 2.75,26.15625 z"
         transform="matrix(1.6061263,0,0,-1.6061263,-5.1420352,7.9766657)"
         id="path416"
         inkscape:connector-curvature="0"
         sodipodi:nodetypes="ccccccccccccccccccccccccc" />
    </g>
    <g
       id="g418"
       transform="matrix(0.62261604,0,0,-0.62261604,7.5598256,1026.2538)" />
    <g
       id="g422"
       transform="matrix(0.62261604,0,0,-0.62261604,1.3336656,1042.6048)" />
    <g
       id="g426"
       transform="matrix(0.62261604,0,0,-0.62261604,1.3336656,1038.1759)" />
    <g
       id="g430"
       transform="matrix(0.62261604,0,0,-0.62261604,1.3336656,1033.7842)" />
  </g>
</svg>
