<?xml version="1.0" encoding="UTF-8" standalone="no"?>
<!-- Created with Inkscape (http://www.inkscape.org/) -->

<svg
   xmlns:dc="http://purl.org/dc/elements/1.1/"
   xmlns:cc="http://creativecommons.org/ns#"
   xmlns:rdf="http://www.w3.org/1999/02/22-rdf-syntax-ns#"
   xmlns:svg="http://www.w3.org/2000/svg"
   xmlns="http://www.w3.org/2000/svg"
   xmlns:sodipodi="http://sodipodi.sourceforge.net/DTD/sodipodi-0.dtd"
   xmlns:inkscape="http://www.inkscape.org/namespaces/inkscape"
   width="35.433071"
   height="35.433071"
   id="svg2"
   version="1.1"
   inkscape:version="0.48.4 r9939"
   sodipodi:docname="image.svg">
  <defs
     id="defs4">
    <linearGradient
       id="linearGradient5256">
      <stop
         style="stop-color:#acacac;stop-opacity:1;"
         offset="0"
         id="stop5258" />
      <stop
         style="stop-color:#acacac;stop-opacity:0.99342108;"
         offset="1"
         id="stop5260" />
    </linearGradient>
    <linearGradient
       id="linearGradient3798">
      <stop
         style="stop-color:#acacac;stop-opacity:1;"
         offset="0"
         id="stop3800" />
      <stop
         style="stop-color:#acacac;stop-opacity:0.68421054;"
         offset="1"
         id="stop3802" />
    </linearGradient>
  </defs>
  <sodipodi:namedview
     id="base"
     pagecolor="#ffffff"
     bordercolor="#666666"
     borderopacity="1.0"
     inkscape:pageopacity="0.0"
     inkscape:pageshadow="2"
     inkscape:zoom="8"
     inkscape:cx="-2.2174213"
     inkscape:cy="-10.931469"
     inkscape:document-units="px"
     inkscape:current-layer="layer1"
     showgrid="true"
     units="cm"
     inkscape:window-width="1920"
     inkscape:window-height="1015"
     inkscape:window-x="0"
     inkscape:window-y="28"
     inkscape:window-maximized="1">
    <inkscape:grid
       type="xygrid"
       id="grid2985"
       empspacing="5"
       visible="true"
       enabled="true"
       snapvisiblegridlinesonly="true"
       units="cm"
       spacingx="0.025cm"
       spacingy="0.0125cm"
       originx="0cm"
       originy="0cm" />
  </sodipodi:namedview>
  <metadata
     id="metadata7">
    <rdf:RDF>
      <cc:Work
         rdf:about="">
        <dc:format>image/svg+xml</dc:format>
        <dc:type
           rdf:resource="http://purl.org/dc/dcmitype/StillImage" />
        <dc:title></dc:title>
      </cc:Work>
    </rdf:RDF>
  </metadata>
  <g
     inkscape:label="Calque 1"
     inkscape:groupmode="layer"
     id="nestor-icon"
     transform="translate(0,-1016.9291)">
    <path
       style="fill:#acacac;fill-opacity:1;fill-rule:nonzero;stroke:none"
       d="m 4,11.0625 c -0.2453723,-2.29e-4 -0.46875,0.223378 -0.46875,0.46875 l 0,19.03125 C 3.53125,30.807872 3.7546276,31 4,31 l 27.4375,0 c 0.245372,0 0.4375,-0.192128 0.4375,-0.4375 l 0,-19.03125 c 0,-0.245372 -0.192128,-0.46875 -0.4375,-0.46875 l -11.063484,0.01033 6.200787,-5.7578692 -0.885827,-0.8858318 -7.086614,6.643701 -1.771653,0 L 9.7440944,4.429134 8.8582676,5.3149658 15.059055,11.072835 z m 3.53125,3.5625 16.84375,0 c 0.245372,0 0.4375,0.192128 0.4375,0.4375 l 0,11.96875 c 0,0.245372 -0.192128,0.4375 -0.4375,0.4375 l -16.84375,0 c -0.2453724,0 -0.4375,-0.192128 -0.4375,-0.4375 l 0,-11.96875 c 0,-0.245372 0.1921276,-0.4375 0.4375,-0.4375 z m 20.8125,0 c 0.978457,0 1.78125,0.771543 1.78125,1.75 0,0.978457 -0.802793,1.78125 -1.78125,1.78125 -0.978457,0 -1.78125,-0.802793 -1.78125,-1.78125 0,-0.978457 0.802793,-1.75 1.78125,-1.75 z m 0,5.3125 c 0.978457,0 1.78125,0.771543 1.78125,1.75 0,0.978457 -0.802793,1.78125 -1.78125,1.78125 -0.978457,0 -1.78125,-0.802793 -1.78125,-1.78125 0,-0.978457 0.802793,-1.75 1.78125,-1.75 z"
       transform="translate(0,1016.9291)"
       id="rect3493"
       inkscape:connector-curvature="0"
       sodipodi:nodetypes="ssssssssccccccccssssssssssssssssssss" />
    <path
       sodipodi:type="arc"
       style="fill:#acacac;fill-opacity:1;fill-rule:nonzero;stroke:none"
       id="path4276"
       sodipodi:cx="28.346457"
       sodipodi:cy="16.387796"
       sodipodi:rx="1.7716535"
       sodipodi:ry="1.7716535"
       d="m 26.661527,16.935308 a 1.7716535,1.7716535 0 0 1 -0.01679,-0.05466"
       transform="translate(-11.247417,1018.8294)"
       sodipodi:start="2.8274095"
       sodipodi:end="2.8596862"
       sodipodi:open="true" />
  </g>
</svg>
