<?xml version="1.0" encoding="UTF-8" standalone="no"?>
<!-- Created with Inkscape (http://www.inkscape.org/) -->

<svg
   xmlns:dc="http://purl.org/dc/elements/1.1/"
   xmlns:cc="http://creativecommons.org/ns#"
   xmlns:rdf="http://www.w3.org/1999/02/22-rdf-syntax-ns#"
   xmlns:svg="http://www.w3.org/2000/svg"
   xmlns="http://www.w3.org/2000/svg"
   xmlns:sodipodi="http://sodipodi.sourceforge.net/DTD/sodipodi-0.dtd"
   xmlns:inkscape="http://www.inkscape.org/namespaces/inkscape"
   width="36.754002"
   height="36.754002"
   id="svg8603"
   version="1.1"
   inkscape:version="0.47 r22583"
   sodipodi:docname="music_active.svg">
  <defs
     id="defs8605">
    <inkscape:perspective
       sodipodi:type="inkscape:persp3d"
       inkscape:vp_x="0 : 526.18109 : 1"
       inkscape:vp_y="0 : 1000 : 0"
       inkscape:vp_z="744.09448 : 526.18109 : 1"
       inkscape:persp3d-origin="372.04724 : 350.78739 : 1"
       id="perspective8611" />
    <inkscape:perspective
       id="perspective8596"
       inkscape:persp3d-origin="0.5 : 0.33333333 : 1"
       inkscape:vp_z="1 : 0.5 : 1"
       inkscape:vp_y="0 : 1000 : 0"
       inkscape:vp_x="0 : 0.5 : 1"
       sodipodi:type="inkscape:persp3d" />
    <inkscape:perspective
       id="perspective9217"
       inkscape:persp3d-origin="0.5 : 0.33333333 : 1"
       inkscape:vp_z="1 : 0.5 : 1"
       inkscape:vp_y="0 : 1000 : 0"
       inkscape:vp_x="0 : 0.5 : 1"
       sodipodi:type="inkscape:persp3d" />
    <inkscape:perspective
       id="perspective9307"
       inkscape:persp3d-origin="0.5 : 0.33333333 : 1"
       inkscape:vp_z="1 : 0.5 : 1"
       inkscape:vp_y="0 : 1000 : 0"
       inkscape:vp_x="0 : 0.5 : 1"
       sodipodi:type="inkscape:persp3d" />
  </defs>
  <sodipodi:namedview
     id="base"
     pagecolor="#ffffff"
     bordercolor="#666666"
     borderopacity="1.0"
     inkscape:pageopacity="0.0"
     inkscape:pageshadow="2"
     inkscape:zoom="11.2"
     inkscape:cx="-38.863765"
     inkscape:cy="26.803823"
     inkscape:document-units="px"
     inkscape:current-layer="layer1"
     showgrid="false"
     inkscape:window-width="1918"
     inkscape:window-height="1175"
     inkscape:window-x="0"
     inkscape:window-y="1"
     inkscape:window-maximized="1" />
  <metadata
     id="metadata8608">
    <rdf:RDF>
      <cc:Work
         rdf:about="">
        <dc:format>image/svg+xml</dc:format>
        <dc:type
           rdf:resource="http://purl.org/dc/dcmitype/StillImage" />
        <dc:title />
      </cc:Work>
    </rdf:RDF>
  </metadata>
  <g
     inkscape:label="Calque 1"
     inkscape:groupmode="layer"
     id="layer1"
     transform="translate(-326.623,-384.69947)">
    <circle
       transform="matrix(0.95227726,0,0,0.95227726,298.38508,185.76013)"
       cx="48.951"
       cy="228.207"
       r="17.877001"
       id="circle1281"
       sodipodi:cx="48.951"
       sodipodi:cy="228.207"
       sodipodi:rx="17.877001"
       sodipodi:ry="17.877001"
       d="m 66.828001,228.207 c 0,9.8732 -8.003806,17.877 -17.877001,17.877 -9.873195,0 -17.877001,-8.0038 -17.877001,-17.877 0,-9.87319 8.003806,-17.877 17.877001,-17.877 9.873195,0 17.877001,8.00381 17.877001,17.877 z"
       style="fill:#000000;fill-opacity:1;stroke:#000000;stroke-width:1;stroke-miterlimit:4;stroke-opacity:1;stroke-dasharray:none" />
    <g
       transform="translate(326.623,-378.04653)"
       id="g1263">
      <path
         d="m 43.515,107.579 c 12.583,0 22.821,10.238 22.821,22.821 0,12.583 -10.237,22.821 -22.821,22.821 -12.584,0 -22.821,-10.238 -22.821,-22.821 0,-12.583 10.238,-22.821 22.821,-22.821 m 0,-1 c -13.156,0 -23.821,10.666 -23.821,23.821 0,13.156 10.666,23.821 23.821,23.821 13.156,0 23.821,-10.665 23.821,-23.821 0,-13.156 -10.665,-23.821 -23.821,-23.821 l 0,0 z"
         id="path1265" />
    </g>
    <path
       d="m 362.951,-253.97953 v 3.08 1.055 9.77 c -0.788,-0.163 -1.839,0.021 -2.847,0.569 -1.646,0.896 -2.549,2.416 -2.016,3.396 0.534,0.98 2.301,1.049 3.947,0.153 1.354,-0.736 2.19,-1.891 2.154,-2.825 h 0.016 v -11.448 l 12.434,-3.821 v 9.348 c -0.787,-0.162 -1.836,0.021 -2.842,0.568 -1.647,0.896 -2.55,2.416 -2.017,3.396 0.533,0.98 2.299,1.049 3.947,0.155 1.34,-0.729 2.172,-1.868 2.154,-2.796 h 0.013 v -11.056 l 0.003,0 v -4.136 l -14.946,4.592 z"
       id="path1267" />
    <path
       d="m 339.75048,398.40283 0,2.26064 0,0.7743 0,7.17081 c -0.57837,-0.11964 -1.34975,0.0155 -2.08958,0.4176 -1.20812,0.65763 -1.87088,1.77326 -1.47969,2.49254 0.39194,0.71929 1.68886,0.76994 2.89696,0.11232 0.99378,-0.54021 1.60735,-1.38793 1.58096,-2.07346 l 0.0116,0 0,-8.40239 9.12605,-2.80446 0,6.86108 c -0.5776,-0.11892 -1.34753,0.0155 -2.08591,0.41688 -1.20884,0.65762 -1.8716,1.77326 -1.4804,2.49253 0.3912,0.7193 1.68737,0.76994 2.89694,0.11376 0.98353,-0.53505 1.59417,-1.37104 1.58096,-2.05215 l 0.01,0 0,-8.11467 0.002,0 0,-3.03565 -10.96977,3.37032 z"
       id="path1267-5"
       style="fill:#ffffff;fill-opacity:1" />
  </g>
</svg>
