<?xml version="1.0" encoding="UTF-8" standalone="no"?>
<!-- Created with Inkscape (http://www.inkscape.org/) -->

<svg
   xmlns:dc="http://purl.org/dc/elements/1.1/"
   xmlns:cc="http://creativecommons.org/ns#"
   xmlns:rdf="http://www.w3.org/1999/02/22-rdf-syntax-ns#"
   xmlns:svg="http://www.w3.org/2000/svg"
   xmlns="http://www.w3.org/2000/svg"
   xmlns:sodipodi="http://sodipodi.sourceforge.net/DTD/sodipodi-0.dtd"
   xmlns:inkscape="http://www.inkscape.org/namespaces/inkscape"
   width="36.754002"
   height="36.754002"
   id="svg8603"
   version="1.1"
   inkscape:version="0.47 r22583"
   sodipodi:docname="sys_active.svg">
  <defs
     id="defs8605">
    <inkscape:perspective
       sodipodi:type="inkscape:persp3d"
       inkscape:vp_x="0 : 526.18109 : 1"
       inkscape:vp_y="0 : 1000 : 0"
       inkscape:vp_z="744.09448 : 526.18109 : 1"
       inkscape:persp3d-origin="372.04724 : 350.78739 : 1"
       id="perspective8611" />
    <inkscape:perspective
       id="perspective8596"
       inkscape:persp3d-origin="0.5 : 0.33333333 : 1"
       inkscape:vp_z="1 : 0.5 : 1"
       inkscape:vp_y="0 : 1000 : 0"
       inkscape:vp_x="0 : 0.5 : 1"
       sodipodi:type="inkscape:persp3d" />
    <inkscape:perspective
       id="perspective9217"
       inkscape:persp3d-origin="0.5 : 0.33333333 : 1"
       inkscape:vp_z="1 : 0.5 : 1"
       inkscape:vp_y="0 : 1000 : 0"
       inkscape:vp_x="0 : 0.5 : 1"
       sodipodi:type="inkscape:persp3d" />
    <inkscape:perspective
       id="perspective9307"
       inkscape:persp3d-origin="0.5 : 0.33333333 : 1"
       inkscape:vp_z="1 : 0.5 : 1"
       inkscape:vp_y="0 : 1000 : 0"
       inkscape:vp_x="0 : 0.5 : 1"
       sodipodi:type="inkscape:persp3d" />
  </defs>
  <sodipodi:namedview
     id="base"
     pagecolor="#ffffff"
     bordercolor="#666666"
     borderopacity="1.0"
     inkscape:pageopacity="0.0"
     inkscape:pageshadow="2"
     inkscape:zoom="16"
     inkscape:cx="23.265744"
     inkscape:cy="9.7435814"
     inkscape:document-units="px"
     inkscape:current-layer="layer1"
     showgrid="false"
     inkscape:window-width="1918"
     inkscape:window-height="1175"
     inkscape:window-x="0"
     inkscape:window-y="1"
     inkscape:window-maximized="1"
     inkscape:object-nodes="true" />
  <metadata
     id="metadata8608">
    <rdf:RDF>
      <cc:Work
         rdf:about="">
        <dc:format>image/svg+xml</dc:format>
        <dc:type
           rdf:resource="http://purl.org/dc/dcmitype/StillImage" />
        <dc:title></dc:title>
      </cc:Work>
    </rdf:RDF>
  </metadata>
  <g
     inkscape:label="Calque 1"
     inkscape:groupmode="layer"
     id="layer1"
     transform="translate(-326.623,-384.69947)">
    <circle
       transform="matrix(0.95227726,0,0,0.95227726,298.38508,185.76013)"
       cx="48.951"
       cy="228.207"
       r="17.877001"
       id="circle1281"
       sodipodi:cx="48.951"
       sodipodi:cy="228.207"
       sodipodi:rx="17.877001"
       sodipodi:ry="17.877001"
       d="m 66.828001,228.207 c 0,9.8732 -8.003806,17.877 -17.877001,17.877 -9.873195,0 -17.877001,-8.0038 -17.877001,-17.877 0,-9.87319 8.003806,-17.877 17.877001,-17.877 9.873195,0 17.877001,8.00381 17.877001,17.877 z"
       style="fill:#ffffff;fill-opacity:1;stroke:#000000;stroke-width:1;stroke-miterlimit:4;stroke-opacity:1;stroke-dasharray:none" />
    <g
       transform="translate(326.623,-378.04653)"
       id="g1263">
      <path
         d="m 43.515,107.579 c 12.583,0 22.821,10.238 22.821,22.821 0,12.583 -10.237,22.821 -22.821,22.821 -12.584,0 -22.821,-10.238 -22.821,-22.821 0,-12.583 10.238,-22.821 22.821,-22.821 m 0,-1 c -13.156,0 -23.821,10.666 -23.821,23.821 0,13.156 10.666,23.821 23.821,23.821 13.156,0 23.821,-10.665 23.821,-23.821 0,-13.156 -10.665,-23.821 -23.821,-23.821 l 0,0 z"
         id="path1265" />
    </g>
    <path
       d="m 362.951,-253.97953 v 3.08 1.055 9.77 c -0.788,-0.163 -1.839,0.021 -2.847,0.569 -1.646,0.896 -2.549,2.416 -2.016,3.396 0.534,0.98 2.301,1.049 3.947,0.153 1.354,-0.736 2.19,-1.891 2.154,-2.825 h 0.016 v -11.448 l 12.434,-3.821 v 9.348 c -0.787,-0.162 -1.836,0.021 -2.842,0.568 -1.647,0.896 -2.55,2.416 -2.017,3.396 0.533,0.98 2.299,1.049 3.947,0.155 1.34,-0.729 2.172,-1.868 2.154,-2.796 h 0.013 v -11.056 l 0.003,0 v -4.136 l -14.946,4.592 z"
       id="path1267" />
    <path
       style="fill:#000000;fill-opacity:1;stroke:#000000;stroke-width:0.83631361000000004;stroke-miterlimit:4;stroke-opacity:1"
       d="m 343.22415,394.1554 c -0.61493,0.1223 -1.77176,0.54355 -1.77176,0.54355 l 0.75809,1.72909 c 0,0 -0.88174,0.40349 -1.26934,0.66665 -0.3876,0.26317 -1.06123,0.91203 -1.06123,0.91203 l -1.31623,-1.33133 c 0,0 -0.77566,0.88239 -1.09849,1.36551 -0.32284,0.48312 -0.84127,1.53738 -0.84127,1.53738 l 1.73364,0.70666 c 0,0 -0.34174,0.87064 -0.43656,1.32944 -0.0948,0.4588 -0.13024,1.42783 -0.13024,1.42783 l -1.88757,-0.0388 c 0,0 0.0534,1.22998 0.17574,1.84491 0.1223,0.61493 0.54355,1.77176 0.54355,1.77176 l 1.73518,-0.72744 c 0,0 0.3974,0.85109 0.66056,1.23869 0.26317,0.3876 0.91203,1.06123 0.91203,1.06123 l -1.32523,1.34688 c 0,0 0.88237,0.77565 1.3655,1.09849 0.48313,0.32283 1.53129,0.81062 1.53129,0.81062 l 0.70666,-1.73364 c 0,0 0.87064,0.34174 1.32944,0.43656 0.4588,0.0948 1.42783,0.13024 1.42783,0.13024 l -0.0388,1.88757 c 0,0 1.22998,-0.0534 1.84491,-0.17574 0.61493,-0.1223 1.77176,-0.54355 1.77176,-0.54355 l -0.72744,-1.73518 c 0,0 0.85109,-0.39739 1.23869,-0.66056 0.3876,-0.26317 1.06123,-0.91203 1.06123,-0.91203 l 1.34688,1.32523 c 0,0 0.78175,-0.85173 1.10459,-1.33485 0.32284,-0.48314 0.81062,-1.53129 0.81062,-1.53129 l -1.73974,-0.73731 c 0,0 0.34174,-0.87064 0.43656,-1.32944 0.0948,-0.4588 0.13633,-1.39718 0.13633,-1.39718 l 1.88148,0.008 c 0,0 -0.0534,-1.22998 -0.17574,-1.84491 -0.1223,-0.61493 -0.54355,-1.77176 -0.54355,-1.77176 l -1.72909,0.75809 c 0,0 -0.40348,-0.88174 -0.66665,-1.26934 -0.26317,-0.3876 -0.91203,-1.06123 -0.91203,-1.06123 l 1.33133,-1.31623 c 0,0 -0.85173,-0.78176 -1.33486,-1.10459 -0.48312,-0.32283 -1.53738,-0.84127 -1.53738,-0.84127 l -0.73731,1.73974 c 0,0 -0.87064,-0.34174 -1.32944,-0.43656 -0.4588,-0.0948 -1.39718,-0.13633 -1.39718,-0.13633 l 0.008,-1.88148 c 0,0 -1.22998,0.0534 -1.84491,0.17574 z m 0.89607,4.50551 c 2.3853,-0.47439 4.7146,1.11653 5.19939,3.55407 0.48478,2.43754 -1.05853,4.79865 -3.44383,5.27305 -2.38531,0.4744 -4.7146,-1.11653 -5.19939,-3.55407 -0.48478,-2.43754 1.05852,-4.79865 3.44383,-5.27305 z"
       id="path3617" />
  </g>
</svg>
